<?xml version="1.0" encoding="UTF-8" standalone="no"?>
<svg xmlns="http://www.w3.org/2000/svg" width="2048" height="2048" viewport="0 0 2048 2048">
	<defs>
		<linearGradient id="a" x1="0%" y1="0%" x2="100%" y2="0%">
			<stop offset="0%" style="stop-color:rgba(21,60,12,1)"/>
			<stop offset="50%" style="stop-color:rgba(77,25,35,1)"/>
			<stop offset="100%" style="stop-color:rgba(0,84,82,1)"/>
		</linearGradient>
	</defs>
	<rect width="100%" height="100%" fill="url(#a)"/>
	<circle cx="103" cy="63" r="2" fill="#ffcc6f"/>
	<circle cx="326" cy="48" r="3" fill="#ffcc6f"/>
	<circle cx="452" cy="56" r="2" fill="#fff4ea"/>
	<circle cx="557" cy="52" r="1" fill="#cad7ff"/>
	<circle cx="587" cy="54" r="3" fill="#ffcc6f"/>
	<circle cx="633" cy="49" r="2" fill="#ffd2a1"/>
	<circle cx="673" cy="61" r="1" fill="#ffcc6f"/>
	<circle cx="719" cy="37" r="2" fill="#f8f7ff"/>
	<circle cx="814" cy="64" r="2" fill="#cad7ff"/>
	<circle cx="957" cy="34" r="3" fill="#cad7ff"/>
	<circle cx="1106" cy="46" r="1" fill="#9bb0ff"/>
	<circle cx="1121" cy="58" r="1" fill="#fff4ea"/>
	<circle cx="1196" cy="44" r="1" fill="#9bb0ff"/>
	<circle cx="1220" cy="43" r="3" fill="#fff4ea"/>
	<circle cx="1354" cy="44" r="1" fill="#ffcc6f"/>
	<circle cx="1464" cy="56" r="3" fill="#fff4ea"/>
	<circle cx="1494" cy="45" r="3" fill="#9bb0ff"/>
	<circle cx="1676" cy="32" r="1" fill="#f8f7ff"/>
	<circle cx="1834" cy="60" r="1" fill="#9bb0ff"/>
	<circle cx="20" cy="38" r="1" fill="#9bb0ff"/>
	<circle cx="222" cy="85" r="1" fill="#9bb0ff"/>
	<circle cx="267" cy="77" r="1" fill="#cad7ff"/>
	<circle cx="314" cy="92" r="2" fill="#9bb0ff"/>
	<circle cx="843" cy="90" r="3" fill="#aabfff"/>
	<circle cx="920" cy="94" r="3" fill="#f8f7ff"/>
	<circle cx="929" cy="82" r="3" fill="#aabfff"/>
	<circle cx="976" cy="74" r="2" fill="#fff4ea"/>
	<circle cx="1226" cy="95" r="2" fill="#fff4ea"/>
	<circle cx="1372" cy="76" r="1" fill="#aabfff"/>
	<circle cx="1757" cy="69" r="1" fill="#f8f7ff"/>
	<circle cx="1858" cy="74" r="1" fill="#9bb0ff"/>
	<circle cx="9" cy="90" r="1" fill="#f8f7ff"/>
	<circle cx="54" cy="110" r="1" fill="#aabfff"/>
	<circle cx="73" cy="115" r="3" fill="#ffcc6f"/>
	<circle cx="232" cy="101" r="1" fill="#aabfff"/>
	<circle cx="262" cy="103" r="2" fill="#ffcc6f"/>
	<circle cx="378" cy="119" r="3" fill="#ffd2a1"/>
	<circle cx="420" cy="109" r="1" fill="#ffd2a1"/>
	<circle cx="564" cy="98" r="2" fill="#ffd2a1"/>
	<circle cx="577" cy="107" r="1" fill="#aabfff"/>
	<circle cx="614" cy="112" r="3" fill="#aabfff"/>
	<circle cx="686" cy="118" r="3" fill="#cad7ff"/>
	<circle cx="911" cy="113" r="3" fill="#aabfff"/>
	<circle cx="1208" cy="115" r="1" fill="#cad7ff"/>
	<circle cx="1303" cy="112" r="3" fill="#ffcc6f"/>
	<circle cx="1336" cy="113" r="1" fill="#ffcc6f"/>
	<circle cx="1684" cy="108" r="2" fill="#9bb0ff"/>
	<circle cx="1920" cy="121" r="2" fill="#fff4ea"/>
	<circle cx="2010" cy="103" r="1" fill="#cad7ff"/>
	<circle cx="100" cy="135" r="3" fill="#ffd2a1"/>
	<circle cx="297" cy="158" r="2" fill="#f8f7ff"/>
	<circle cx="413" cy="134" r="1" fill="#aabfff"/>
	<circle cx="793" cy="150" r="1" fill="#9bb0ff"/>
	<circle cx="1162" cy="157" r="2" fill="#fff4ea"/>
	<circle cx="1324" cy="136" r="1" fill="#aabfff"/>
	<circle cx="1438" cy="147" r="2" fill="#cad7ff"/>
	<circle cx="1484" cy="131" r="1" fill="#9bb0ff"/>
	<circle cx="41" cy="179" r="2" fill="#ffd2a1"/>
	<circle cx="132" cy="186" r="1" fill="#aabfff"/>
	<circle cx="238" cy="188" r="1" fill="#ffd2a1"/>
	<circle cx="323" cy="169" r="1" fill="#f8f7ff"/>
	<circle cx="536" cy="165" r="3" fill="#cad7ff"/>
	<circle cx="693" cy="180" r="1" fill="#fff4ea"/>
	<circle cx="1243" cy="173" r="1" fill="#cad7ff"/>
	<circle cx="1364" cy="171" r="3" fill="#f8f7ff"/>
	<circle cx="1550" cy="188" r="2" fill="#fff4ea"/>
	<circle cx="1579" cy="192" r="3" fill="#aabfff"/>
	<circle cx="1748" cy="167" r="2" fill="#cad7ff"/>
	<circle cx="1833" cy="176" r="3" fill="#f8f7ff"/>
	<circle cx="1987" cy="167" r="1" fill="#fff4ea"/>
	<circle cx="22" cy="190" r="3" fill="#f8f7ff"/>
	<circle cx="75" cy="213" r="1" fill="#aabfff"/>
	<circle cx="174" cy="196" r="1" fill="#fff4ea"/>
	<circle cx="342" cy="195" r="3" fill="#aabfff"/>
	<circle cx="482" cy="210" r="3" fill="#cad7ff"/>
	<circle cx="853" cy="200" r="3" fill="#9bb0ff"/>
	<circle cx="958" cy="224" r="2" fill="#9bb0ff"/>
	<circle cx="1006" cy="222" r="3" fill="#9bb0ff"/>
	<circle cx="1608" cy="198" r="3" fill="#cad7ff"/>
	<circle cx="1644" cy="213" r="1" fill="#aabfff"/>
	<circle cx="1836" cy="212" r="2" fill="#9bb0ff"/>
	<circle cx="1878" cy="223" r="1" fill="#cad7ff"/>
	<circle cx="86" cy="232" r="1" fill="#fff4ea"/>
	<circle cx="254" cy="232" r="3" fill="#9bb0ff"/>
	<circle cx="263" cy="251" r="1" fill="#cad7ff"/>
	<circle cx="451" cy="235" r="3" fill="#ffd2a1"/>
	<circle cx="530" cy="230" r="1" fill="#ffcc6f"/>
	<circle cx="662" cy="230" r="1" fill="#ffcc6f"/>
	<circle cx="949" cy="245" r="1" fill="#ffcc6f"/>
	<circle cx="1038" cy="224" r="3" fill="#cad7ff"/>
	<circle cx="1394" cy="250" r="1" fill="#aabfff"/>
	<circle cx="1529" cy="235" r="1" fill="#fff4ea"/>
	<circle cx="1559" cy="234" r="3" fill="#fff4ea"/>
	<circle cx="1688" cy="226" r="3" fill="#cad7ff"/>
	<circle cx="1967" cy="234" r="2" fill="#9bb0ff"/>
	<circle cx="1991" cy="240" r="1" fill="#ffd2a1"/>
	<circle cx="30" cy="249" r="1" fill="#f8f7ff"/>
	<circle cx="37" cy="285" r="3" fill="#ffd2a1"/>
	<circle cx="103" cy="267" r="1" fill="#9bb0ff"/>
	<circle cx="130" cy="274" r="3" fill="#f8f7ff"/>
	<circle cx="166" cy="259" r="1" fill="#ffcc6f"/>
	<circle cx="332" cy="278" r="2" fill="#ffcc6f"/>
	<circle cx="450" cy="262" r="2" fill="#9bb0ff"/>
	<circle cx="586" cy="276" r="2" fill="#f8f7ff"/>
	<circle cx="633" cy="264" r="2" fill="#aabfff"/>
	<circle cx="732" cy="257" r="3" fill="#f8f7ff"/>
	<circle cx="738" cy="260" r="1" fill="#ffcc6f"/>
	<circle cx="793" cy="267" r="2" fill="#ffd2a1"/>
	<circle cx="955" cy="257" r="1" fill="#9bb0ff"/>
	<circle cx="1044" cy="276" r="1" fill="#9bb0ff"/>
	<circle cx="1202" cy="269" r="2" fill="#f8f7ff"/>
	<circle cx="1284" cy="268" r="3" fill="#cad7ff"/>
	<circle cx="1368" cy="259" r="3" fill="#9bb0ff"/>
	<circle cx="1493" cy="279" r="3" fill="#ffcc6f"/>
	<circle cx="1751" cy="277" r="3" fill="#ffcc6f"/>
	<circle cx="25" cy="277" r="3" fill="#aabfff"/>
	<circle cx="44" cy="299" r="1" fill="#cad7ff"/>
	<circle cx="615" cy="293" r="1" fill="#f8f7ff"/>
	<circle cx="651" cy="303" r="3" fill="#ffcc6f"/>
	<circle cx="801" cy="317" r="1" fill="#ffd2a1"/>
	<circle cx="1228" cy="290" r="1" fill="#aabfff"/>
	<circle cx="1468" cy="311" r="2" fill="#cad7ff"/>
	<circle cx="1640" cy="297" r="1" fill="#ffd2a1"/>
	<circle cx="1714" cy="297" r="1" fill="#cad7ff"/>
	<circle cx="1826" cy="303" r="1" fill="#cad7ff"/>
	<circle cx="1900" cy="305" r="3" fill="#9bb0ff"/>
	<circle cx="37" cy="339" r="1" fill="#fff4ea"/>
	<circle cx="222" cy="352" r="3" fill="#f8f7ff"/>
	<circle cx="539" cy="348" r="2" fill="#ffcc6f"/>
	<circle cx="660" cy="343" r="1" fill="#f8f7ff"/>
	<circle cx="836" cy="323" r="1" fill="#aabfff"/>
	<circle cx="1144" cy="341" r="1" fill="#fff4ea"/>
	<circle cx="1680" cy="347" r="3" fill="#f8f7ff"/>
	<circle cx="1754" cy="322" r="3" fill="#ffcc6f"/>
	<circle cx="1842" cy="334" r="3" fill="#ffcc6f"/>
	<circle cx="1882" cy="321" r="2" fill="#f8f7ff"/>
	<circle cx="1983" cy="339" r="3" fill="#ffd2a1"/>
	<circle cx="2014" cy="326" r="2" fill="#ffcc6f"/>
	<circle cx="84" cy="368" r="2" fill="#cad7ff"/>
	<circle cx="290" cy="373" r="3" fill="#aabfff"/>
	<circle cx="336" cy="375" r="1" fill="#aabfff"/>
	<circle cx="842" cy="356" r="1" fill="#ffd2a1"/>
	<circle cx="903" cy="371" r="2" fill="#ffd2a1"/>
	<circle cx="1064" cy="380" r="3" fill="#fff4ea"/>
	<circle cx="1395" cy="364" r="3" fill="#ffcc6f"/>
	<circle cx="1467" cy="377" r="1" fill="#aabfff"/>
	<circle cx="1542" cy="377" r="3" fill="#f8f7ff"/>
	<circle cx="1936" cy="371" r="3" fill="#ffd2a1"/>
	<circle cx="2045" cy="368" r="1" fill="#fff4ea"/>
	<circle cx="9" cy="378" r="2" fill="#aabfff"/>
	<circle cx="347" cy="411" r="2" fill="#ffd2a1"/>
	<circle cx="623" cy="388" r="1" fill="#ffd2a1"/>
	<circle cx="714" cy="406" r="3" fill="#fff4ea"/>
	<circle cx="742" cy="399" r="3" fill="#ffd2a1"/>
	<circle cx="927" cy="387" r="3" fill="#ffd2a1"/>
	<circle cx="1061" cy="398" r="3" fill="#ffd2a1"/>
	<circle cx="1280" cy="404" r="3" fill="#aabfff"/>
	<circle cx="1372" cy="405" r="1" fill="#9bb0ff"/>
	<circle cx="1412" cy="386" r="2" fill="#ffcc6f"/>
	<circle cx="1575" cy="402" r="1" fill="#fff4ea"/>
	<circle cx="1608" cy="405" r="2" fill="#f8f7ff"/>
	<circle cx="1941" cy="400" r="1" fill="#fff4ea"/>
	<circle cx="1" cy="393" r="3" fill="#f8f7ff"/>
	<circle cx="94" cy="421" r="3" fill="#aabfff"/>
	<circle cx="396" cy="431" r="2" fill="#aabfff"/>
	<circle cx="510" cy="419" r="3" fill="#cad7ff"/>
	<circle cx="558" cy="420" r="3" fill="#fff4ea"/>
	<circle cx="624" cy="435" r="2" fill="#aabfff"/>
	<circle cx="648" cy="422" r="1" fill="#ffcc6f"/>
	<circle cx="1197" cy="431" r="1" fill="#fff4ea"/>
	<circle cx="1526" cy="441" r="2" fill="#fff4ea"/>
	<circle cx="1598" cy="421" r="1" fill="#f8f7ff"/>
	<circle cx="1695" cy="439" r="1" fill="#aabfff"/>
	<circle cx="1747" cy="430" r="3" fill="#cad7ff"/>
	<circle cx="1830" cy="437" r="2" fill="#f8f7ff"/>
	<circle cx="126" cy="470" r="3" fill="#ffd2a1"/>
	<circle cx="561" cy="480" r="3" fill="#ffd2a1"/>
	<circle cx="739" cy="472" r="3" fill="#f8f7ff"/>
	<circle cx="1085" cy="463" r="3" fill="#ffd2a1"/>
	<circle cx="1100" cy="464" r="2" fill="#cad7ff"/>
	<circle cx="1155" cy="469" r="3" fill="#f8f7ff"/>
	<circle cx="1201" cy="460" r="2" fill="#aabfff"/>
	<circle cx="1413" cy="472" r="1" fill="#ffd2a1"/>
	<circle cx="1548" cy="451" r="3" fill="#ffd2a1"/>
	<circle cx="1602" cy="464" r="3" fill="#ffcc6f"/>
	<circle cx="1710" cy="474" r="3" fill="#ffcc6f"/>
	<circle cx="1749" cy="475" r="1" fill="#ffd2a1"/>
	<circle cx="256" cy="506" r="3" fill="#ffd2a1"/>
	<circle cx="409" cy="509" r="2" fill="#f8f7ff"/>
	<circle cx="498" cy="492" r="1" fill="#f8f7ff"/>
	<circle cx="514" cy="509" r="2" fill="#9bb0ff"/>
	<circle cx="631" cy="500" r="3" fill="#fff4ea"/>
	<circle cx="678" cy="508" r="2" fill="#fff4ea"/>
	<circle cx="705" cy="501" r="3" fill="#cad7ff"/>
	<circle cx="853" cy="490" r="3" fill="#ffcc6f"/>
	<circle cx="923" cy="510" r="3" fill="#aabfff"/>
	<circle cx="1171" cy="487" r="2" fill="#9bb0ff"/>
	<circle cx="1210" cy="510" r="2" fill="#9bb0ff"/>
	<circle cx="1362" cy="511" r="1" fill="#aabfff"/>
	<circle cx="1464" cy="501" r="3" fill="#fff4ea"/>
	<circle cx="1525" cy="506" r="3" fill="#ffd2a1"/>
	<circle cx="1690" cy="486" r="3" fill="#9bb0ff"/>
	<circle cx="1814" cy="499" r="1" fill="#ffcc6f"/>
	<circle cx="1849" cy="491" r="1" fill="#f8f7ff"/>
	<circle cx="1984" cy="510" r="3" fill="#ffd2a1"/>
	<circle cx="131" cy="534" r="3" fill="#f8f7ff"/>
	<circle cx="213" cy="541" r="1" fill="#aabfff"/>
	<circle cx="381" cy="528" r="2" fill="#ffcc6f"/>
	<circle cx="652" cy="525" r="3" fill="#9bb0ff"/>
	<circle cx="709" cy="538" r="2" fill="#f8f7ff"/>
	<circle cx="812" cy="533" r="2" fill="#9bb0ff"/>
	<circle cx="906" cy="544" r="2" fill="#9bb0ff"/>
	<circle cx="1169" cy="535" r="3" fill="#aabfff"/>
	<circle cx="13" cy="543" r="2" fill="#aabfff"/>
	<circle cx="259" cy="547" r="1" fill="#ffcc6f"/>
	<circle cx="301" cy="553" r="2" fill="#fff4ea"/>
	<circle cx="377" cy="546" r="2" fill="#cad7ff"/>
	<circle cx="458" cy="545" r="3" fill="#f8f7ff"/>
	<circle cx="576" cy="553" r="3" fill="#aabfff"/>
	<circle cx="633" cy="574" r="3" fill="#fff4ea"/>
	<circle cx="759" cy="562" r="1" fill="#ffd2a1"/>
	<circle cx="914" cy="566" r="2" fill="#aabfff"/>
	<circle cx="1034" cy="545" r="2" fill="#f8f7ff"/>
	<circle cx="1058" cy="552" r="2" fill="#f8f7ff"/>
	<circle cx="1264" cy="555" r="3" fill="#ffd2a1"/>
	<circle cx="1801" cy="570" r="3" fill="#fff4ea"/>
	<circle cx="90" cy="585" r="3" fill="#9bb0ff"/>
	<circle cx="302" cy="602" r="1" fill="#9bb0ff"/>
	<circle cx="344" cy="592" r="2" fill="#ffcc6f"/>
	<circle cx="380" cy="579" r="3" fill="#ffcc6f"/>
	<circle cx="591" cy="599" r="1" fill="#fff4ea"/>
	<circle cx="687" cy="603" r="3" fill="#aabfff"/>
	<circle cx="914" cy="578" r="1" fill="#ffd2a1"/>
	<circle cx="966" cy="603" r="1" fill="#ffcc6f"/>
	<circle cx="1025" cy="589" r="3" fill="#9bb0ff"/>
	<circle cx="1276" cy="585" r="3" fill="#ffcc6f"/>
	<circle cx="1290" cy="596" r="1" fill="#fff4ea"/>
	<circle cx="1784" cy="578" r="3" fill="#9bb0ff"/>
	<circle cx="1904" cy="580" r="2" fill="#f8f7ff"/>
	<circle cx="171" cy="634" r="1" fill="#fff4ea"/>
	<circle cx="435" cy="628" r="3" fill="#f8f7ff"/>
	<circle cx="535" cy="633" r="1" fill="#f8f7ff"/>
	<circle cx="611" cy="624" r="2" fill="#fff4ea"/>
	<circle cx="790" cy="622" r="2" fill="#cad7ff"/>
	<circle cx="955" cy="620" r="3" fill="#fff4ea"/>
	<circle cx="1067" cy="623" r="3" fill="#fff4ea"/>
	<circle cx="1525" cy="608" r="2" fill="#f8f7ff"/>
	<circle cx="1751" cy="629" r="1" fill="#aabfff"/>
	<circle cx="1801" cy="625" r="1" fill="#f8f7ff"/>
	<circle cx="1965" cy="611" r="1" fill="#f8f7ff"/>
	<circle cx="2005" cy="632" r="3" fill="#9bb0ff"/>
	<circle cx="48" cy="643" r="1" fill="#f8f7ff"/>
	<circle cx="126" cy="648" r="2" fill="#aabfff"/>
	<circle cx="266" cy="643" r="1" fill="#9bb0ff"/>
	<circle cx="444" cy="653" r="2" fill="#cad7ff"/>
	<circle cx="467" cy="659" r="1" fill="#ffd2a1"/>
	<circle cx="504" cy="648" r="1" fill="#ffcc6f"/>
	<circle cx="738" cy="661" r="2" fill="#ffd2a1"/>
	<circle cx="871" cy="660" r="3" fill="#ffd2a1"/>
	<circle cx="1193" cy="668" r="1" fill="#aabfff"/>
	<circle cx="1239" cy="668" r="2" fill="#ffcc6f"/>
	<circle cx="1277" cy="642" r="3" fill="#fff4ea"/>
	<circle cx="1292" cy="661" r="2" fill="#aabfff"/>
	<circle cx="1622" cy="669" r="1" fill="#ffd2a1"/>
	<circle cx="1731" cy="652" r="1" fill="#9bb0ff"/>
	<circle cx="1850" cy="659" r="1" fill="#9bb0ff"/>
	<circle cx="1895" cy="671" r="2" fill="#aabfff"/>
	<circle cx="84" cy="703" r="1" fill="#9bb0ff"/>
	<circle cx="215" cy="695" r="1" fill="#aabfff"/>
	<circle cx="306" cy="686" r="1" fill="#ffd2a1"/>
	<circle cx="326" cy="676" r="2" fill="#aabfff"/>
	<circle cx="399" cy="672" r="1" fill="#f8f7ff"/>
	<circle cx="448" cy="673" r="1" fill="#ffcc6f"/>
	<circle cx="636" cy="697" r="2" fill="#fff4ea"/>
	<circle cx="858" cy="692" r="1" fill="#ffcc6f"/>
	<circle cx="968" cy="700" r="3" fill="#aabfff"/>
	<circle cx="1005" cy="697" r="1" fill="#ffd2a1"/>
	<circle cx="1106" cy="697" r="2" fill="#fff4ea"/>
	<circle cx="1209" cy="689" r="2" fill="#aabfff"/>
	<circle cx="1221" cy="676" r="2" fill="#9bb0ff"/>
	<circle cx="1309" cy="692" r="2" fill="#aabfff"/>
	<circle cx="1376" cy="704" r="3" fill="#cad7ff"/>
	<circle cx="1468" cy="693" r="2" fill="#9bb0ff"/>
	<circle cx="1555" cy="689" r="3" fill="#ffd2a1"/>
	<circle cx="1641" cy="687" r="2" fill="#f8f7ff"/>
	<circle cx="11" cy="683" r="2" fill="#cad7ff"/>
	<circle cx="235" cy="722" r="2" fill="#9bb0ff"/>
	<circle cx="330" cy="729" r="3" fill="#ffd2a1"/>
	<circle cx="400" cy="719" r="2" fill="#cad7ff"/>
	<circle cx="433" cy="734" r="2" fill="#9bb0ff"/>
	<circle cx="511" cy="729" r="3" fill="#fff4ea"/>
	<circle cx="535" cy="726" r="1" fill="#ffcc6f"/>
	<circle cx="723" cy="721" r="1" fill="#ffd2a1"/>
	<circle cx="866" cy="714" r="2" fill="#cad7ff"/>
	<circle cx="908" cy="722" r="3" fill="#fff4ea"/>
	<circle cx="1138" cy="719" r="1" fill="#ffd2a1"/>
	<circle cx="1197" cy="714" r="1" fill="#ffcc6f"/>
	<circle cx="1388" cy="735" r="1" fill="#f8f7ff"/>
	<circle cx="1452" cy="715" r="3" fill="#ffcc6f"/>
	<circle cx="1553" cy="707" r="2" fill="#9bb0ff"/>
	<circle cx="1789" cy="723" r="1" fill="#f8f7ff"/>
	<circle cx="1806" cy="723" r="3" fill="#aabfff"/>
	<circle cx="1837" cy="716" r="1" fill="#cad7ff"/>
	<circle cx="32" cy="745" r="1" fill="#9bb0ff"/>
	<circle cx="181" cy="740" r="1" fill="#fff4ea"/>
	<circle cx="636" cy="747" r="1" fill="#ffd2a1"/>
	<circle cx="813" cy="760" r="3" fill="#aabfff"/>
	<circle cx="947" cy="762" r="1" fill="#ffcc6f"/>
	<circle cx="1065" cy="747" r="3" fill="#f8f7ff"/>
	<circle cx="1141" cy="758" r="2" fill="#ffd2a1"/>
	<circle cx="1285" cy="745" r="2" fill="#9bb0ff"/>
	<circle cx="1374" cy="739" r="3" fill="#f8f7ff"/>
	<circle cx="1531" cy="742" r="3" fill="#ffd2a1"/>
	<circle cx="1688" cy="748" r="2" fill="#ffcc6f"/>
	<circle cx="1726" cy="748" r="2" fill="#fff4ea"/>
	<circle cx="1798" cy="752" r="3" fill="#9bb0ff"/>
	<circle cx="152" cy="792" r="1" fill="#ffd2a1"/>
	<circle cx="460" cy="783" r="2" fill="#fff4ea"/>
	<circle cx="505" cy="795" r="1" fill="#f8f7ff"/>
	<circle cx="684" cy="785" r="3" fill="#aabfff"/>
	<circle cx="839" cy="785" r="2" fill="#9bb0ff"/>
	<circle cx="1237" cy="784" r="1" fill="#ffcc6f"/>
	<circle cx="1329" cy="796" r="3" fill="#f8f7ff"/>
	<circle cx="1350" cy="798" r="2" fill="#ffcc6f"/>
	<circle cx="1638" cy="783" r="2" fill="#cad7ff"/>
	<circle cx="1813" cy="774" r="1" fill="#f8f7ff"/>
	<circle cx="71" cy="801" r="2" fill="#fff4ea"/>
	<circle cx="166" cy="804" r="1" fill="#cad7ff"/>
	<circle cx="241" cy="813" r="2" fill="#aabfff"/>
	<circle cx="368" cy="827" r="2" fill="#f8f7ff"/>
	<circle cx="572" cy="830" r="2" fill="#fff4ea"/>
	<circle cx="626" cy="814" r="2" fill="#ffd2a1"/>
	<circle cx="642" cy="817" r="3" fill="#ffd2a1"/>
	<circle cx="952" cy="827" r="1" fill="#9bb0ff"/>
	<circle cx="1041" cy="814" r="2" fill="#9bb0ff"/>
	<circle cx="1326" cy="826" r="2" fill="#cad7ff"/>
	<circle cx="1399" cy="822" r="1" fill="#fff4ea"/>
	<circle cx="1781" cy="804" r="2" fill="#9bb0ff"/>
	<circle cx="2036" cy="823" r="1" fill="#cad7ff"/>
	<circle cx="20" cy="802" r="1" fill="#cad7ff"/>
	<circle cx="140" cy="840" r="1" fill="#f8f7ff"/>
	<circle cx="306" cy="855" r="2" fill="#fff4ea"/>
	<circle cx="419" cy="845" r="1" fill="#cad7ff"/>
	<circle cx="689" cy="853" r="2" fill="#9bb0ff"/>
	<circle cx="877" cy="857" r="1" fill="#9bb0ff"/>
	<circle cx="1147" cy="842" r="2" fill="#9bb0ff"/>
	<circle cx="1233" cy="838" r="3" fill="#aabfff"/>
	<circle cx="1278" cy="847" r="1" fill="#ffcc6f"/>
	<circle cx="1311" cy="862" r="3" fill="#cad7ff"/>
	<circle cx="1320" cy="846" r="3" fill="#ffcc6f"/>
	<circle cx="1352" cy="843" r="3" fill="#9bb0ff"/>
	<circle cx="1502" cy="858" r="2" fill="#ffcc6f"/>
	<circle cx="1555" cy="843" r="3" fill="#ffd2a1"/>
	<circle cx="1657" cy="846" r="3" fill="#9bb0ff"/>
	<circle cx="1880" cy="864" r="2" fill="#fff4ea"/>
	<circle cx="467" cy="866" r="1" fill="#cad7ff"/>
	<circle cx="498" cy="879" r="1" fill="#ffd2a1"/>
	<circle cx="630" cy="894" r="2" fill="#9bb0ff"/>
	<circle cx="668" cy="890" r="3" fill="#9bb0ff"/>
	<circle cx="673" cy="873" r="2" fill="#9bb0ff"/>
	<circle cx="1001" cy="877" r="2" fill="#fff4ea"/>
	<circle cx="1427" cy="884" r="1" fill="#ffcc6f"/>
	<circle cx="1445" cy="889" r="3" fill="#cad7ff"/>
	<circle cx="1602" cy="889" r="2" fill="#fff4ea"/>
	<circle cx="1820" cy="894" r="3" fill="#f8f7ff"/>
	<circle cx="335" cy="901" r="3" fill="#aabfff"/>
	<circle cx="433" cy="898" r="1" fill="#fff4ea"/>
	<circle cx="497" cy="921" r="3" fill="#ffd2a1"/>
	<circle cx="662" cy="912" r="2" fill="#9bb0ff"/>
	<circle cx="708" cy="903" r="2" fill="#cad7ff"/>
	<circle cx="788" cy="914" r="1" fill="#cad7ff"/>
	<circle cx="1073" cy="899" r="2" fill="#f8f7ff"/>
	<circle cx="1239" cy="924" r="3" fill="#9bb0ff"/>
	<circle cx="1444" cy="899" r="1" fill="#fff4ea"/>
	<circle cx="1542" cy="906" r="3" fill="#ffd2a1"/>
	<circle cx="1734" cy="916" r="2" fill="#cad7ff"/>
	<circle cx="1775" cy="925" r="3" fill="#cad7ff"/>
	<circle cx="1927" cy="906" r="2" fill="#ffcc6f"/>
	<circle cx="180" cy="956" r="3" fill="#9bb0ff"/>
	<circle cx="672" cy="956" r="3" fill="#f8f7ff"/>
	<circle cx="764" cy="940" r="2" fill="#f8f7ff"/>
	<circle cx="885" cy="931" r="1" fill="#ffd2a1"/>
	<circle cx="1455" cy="941" r="3" fill="#fff4ea"/>
	<circle cx="1676" cy="949" r="3" fill="#f8f7ff"/>
	<circle cx="1775" cy="930" r="2" fill="#ffd2a1"/>
	<circle cx="1860" cy="936" r="2" fill="#ffcc6f"/>
	<circle cx="35" cy="963" r="3" fill="#f8f7ff"/>
	<circle cx="155" cy="978" r="2" fill="#aabfff"/>
	<circle cx="415" cy="971" r="2" fill="#f8f7ff"/>
	<circle cx="453" cy="984" r="2" fill="#cad7ff"/>
	<circle cx="595" cy="964" r="3" fill="#cad7ff"/>
	<circle cx="720" cy="964" r="3" fill="#9bb0ff"/>
	<circle cx="1493" cy="985" r="2" fill="#9bb0ff"/>
	<circle cx="1512" cy="970" r="1" fill="#fff4ea"/>
	<circle cx="1643" cy="972" r="3" fill="#cad7ff"/>
	<circle cx="249" cy="1005" r="1" fill="#aabfff"/>
	<circle cx="511" cy="1016" r="3" fill="#aabfff"/>
	<circle cx="755" cy="999" r="3" fill="#9bb0ff"/>
	<circle cx="785" cy="1004" r="1" fill="#ffd2a1"/>
	<circle cx="1215" cy="994" r="2" fill="#ffcc6f"/>
	<circle cx="1323" cy="1008" r="3" fill="#9bb0ff"/>
	<circle cx="1351" cy="1007" r="3" fill="#aabfff"/>
	<circle cx="2026" cy="1021" r="3" fill="#ffcc6f"/>
	<circle cx="149" cy="1029" r="2" fill="#9bb0ff"/>
	<circle cx="537" cy="1045" r="1" fill="#9bb0ff"/>
	<circle cx="883" cy="1053" r="2" fill="#ffcc6f"/>
	<circle cx="1508" cy="1030" r="1" fill="#aabfff"/>
	<circle cx="1627" cy="1036" r="2" fill="#ffcc6f"/>
	<circle cx="1744" cy="1027" r="1" fill="#fff4ea"/>
	<circle cx="212" cy="1071" r="3" fill="#9bb0ff"/>
	<circle cx="238" cy="1070" r="2" fill="#cad7ff"/>
	<circle cx="331" cy="1072" r="3" fill="#ffcc6f"/>
	<circle cx="390" cy="1066" r="1" fill="#aabfff"/>
	<circle cx="538" cy="1057" r="3" fill="#fff4ea"/>
	<circle cx="695" cy="1067" r="3" fill="#cad7ff"/>
	<circle cx="725" cy="1071" r="1" fill="#aabfff"/>
	<circle cx="890" cy="1058" r="3" fill="#ffcc6f"/>
	<circle cx="986" cy="1068" r="1" fill="#aabfff"/>
	<circle cx="997" cy="1082" r="3" fill="#f8f7ff"/>
	<circle cx="1265" cy="1071" r="1" fill="#ffd2a1"/>
	<circle cx="1409" cy="1074" r="1" fill="#fff4ea"/>
	<circle cx="1681" cy="1058" r="3" fill="#f8f7ff"/>
	<circle cx="1898" cy="1072" r="2" fill="#cad7ff"/>
	<circle cx="7" cy="1080" r="2" fill="#9bb0ff"/>
	<circle cx="61" cy="1117" r="3" fill="#ffcc6f"/>
	<circle cx="132" cy="1093" r="3" fill="#ffcc6f"/>
	<circle cx="339" cy="1101" r="3" fill="#9bb0ff"/>
	<circle cx="581" cy="1089" r="2" fill="#cad7ff"/>
	<circle cx="770" cy="1102" r="2" fill="#cad7ff"/>
	<circle cx="865" cy="1116" r="2" fill="#9bb0ff"/>
	<circle cx="947" cy="1095" r="2" fill="#9bb0ff"/>
	<circle cx="992" cy="1118" r="2" fill="#aabfff"/>
	<circle cx="1058" cy="1119" r="1" fill="#9bb0ff"/>
	<circle cx="1347" cy="1115" r="3" fill="#ffd2a1"/>
	<circle cx="1527" cy="1111" r="2" fill="#9bb0ff"/>
	<circle cx="1604" cy="1100" r="1" fill="#ffd2a1"/>
	<circle cx="1642" cy="1105" r="3" fill="#ffcc6f"/>
	<circle cx="1820" cy="1101" r="1" fill="#ffd2a1"/>
	<circle cx="2012" cy="1118" r="3" fill="#cad7ff"/>
	<circle cx="334" cy="1146" r="2" fill="#ffd2a1"/>
	<circle cx="491" cy="1124" r="2" fill="#ffd2a1"/>
	<circle cx="584" cy="1152" r="2" fill="#aabfff"/>
	<circle cx="750" cy="1128" r="3" fill="#cad7ff"/>
	<circle cx="831" cy="1127" r="3" fill="#9bb0ff"/>
	<circle cx="953" cy="1146" r="2" fill="#9bb0ff"/>
	<circle cx="1119" cy="1135" r="2" fill="#fff4ea"/>
	<circle cx="1293" cy="1151" r="3" fill="#cad7ff"/>
	<circle cx="1501" cy="1131" r="2" fill="#f8f7ff"/>
	<circle cx="1731" cy="1125" r="2" fill="#ffd2a1"/>
	<circle cx="1867" cy="1128" r="2" fill="#aabfff"/>
	<circle cx="1918" cy="1138" r="1" fill="#f8f7ff"/>
	<circle cx="86" cy="1182" r="2" fill="#9bb0ff"/>
	<circle cx="145" cy="1155" r="1" fill="#9bb0ff"/>
	<circle cx="165" cy="1164" r="2" fill="#f8f7ff"/>
	<circle cx="294" cy="1178" r="2" fill="#ffcc6f"/>
	<circle cx="335" cy="1164" r="3" fill="#cad7ff"/>
	<circle cx="585" cy="1165" r="1" fill="#f8f7ff"/>
	<circle cx="634" cy="1180" r="2" fill="#ffd2a1"/>
	<circle cx="1224" cy="1172" r="3" fill="#aabfff"/>
	<circle cx="1382" cy="1180" r="2" fill="#f8f7ff"/>
	<circle cx="1485" cy="1175" r="3" fill="#9bb0ff"/>
	<circle cx="1692" cy="1158" r="2" fill="#ffd2a1"/>
	<circle cx="1748" cy="1179" r="1" fill="#ffd2a1"/>
	<circle cx="1839" cy="1183" r="3" fill="#ffcc6f"/>
	<circle cx="108" cy="1207" r="3" fill="#ffd2a1"/>
	<circle cx="300" cy="1193" r="2" fill="#9bb0ff"/>
	<circle cx="432" cy="1189" r="3" fill="#fff4ea"/>
	<circle cx="675" cy="1186" r="3" fill="#ffcc6f"/>
	<circle cx="919" cy="1191" r="1" fill="#9bb0ff"/>
	<circle cx="938" cy="1186" r="1" fill="#9bb0ff"/>
	<circle cx="1482" cy="1205" r="3" fill="#ffcc6f"/>
	<circle cx="1746" cy="1206" r="1" fill="#aabfff"/>
	<circle cx="1787" cy="1205" r="1" fill="#9bb0ff"/>
	<circle cx="1958" cy="1204" r="1" fill="#9bb0ff"/>
	<circle cx="1996" cy="1201" r="2" fill="#cad7ff"/>
	<circle cx="46" cy="1228" r="2" fill="#aabfff"/>
	<circle cx="77" cy="1246" r="1" fill="#f8f7ff"/>
	<circle cx="160" cy="1242" r="3" fill="#aabfff"/>
	<circle cx="207" cy="1229" r="2" fill="#aabfff"/>
	<circle cx="400" cy="1237" r="1" fill="#cad7ff"/>
	<circle cx="501" cy="1220" r="3" fill="#ffcc6f"/>
	<circle cx="549" cy="1225" r="3" fill="#aabfff"/>
	<circle cx="969" cy="1226" r="1" fill="#fff4ea"/>
	<circle cx="1005" cy="1233" r="2" fill="#ffd2a1"/>
	<circle cx="1422" cy="1239" r="2" fill="#cad7ff"/>
	<circle cx="1488" cy="1243" r="1" fill="#ffd2a1"/>
	<circle cx="1593" cy="1245" r="1" fill="#ffd2a1"/>
	<circle cx="1965" cy="1236" r="1" fill="#fff4ea"/>
	<circle cx="2017" cy="1221" r="1" fill="#fff4ea"/>
	<circle cx="83" cy="1270" r="3" fill="#ffcc6f"/>
	<circle cx="266" cy="1263" r="3" fill="#fff4ea"/>
	<circle cx="338" cy="1274" r="2" fill="#fff4ea"/>
	<circle cx="416" cy="1248" r="1" fill="#fff4ea"/>
	<circle cx="443" cy="1265" r="3" fill="#9bb0ff"/>
	<circle cx="771" cy="1276" r="1" fill="#f8f7ff"/>
	<circle cx="865" cy="1277" r="1" fill="#cad7ff"/>
	<circle cx="959" cy="1256" r="3" fill="#fff4ea"/>
	<circle cx="1021" cy="1269" r="1" fill="#9bb0ff"/>
	<circle cx="1060" cy="1273" r="1" fill="#aabfff"/>
	<circle cx="1091" cy="1263" r="3" fill="#aabfff"/>
	<circle cx="1192" cy="1253" r="3" fill="#ffd2a1"/>
	<circle cx="1239" cy="1266" r="3" fill="#ffcc6f"/>
	<circle cx="1886" cy="1256" r="1" fill="#ffcc6f"/>
	<circle cx="53" cy="1289" r="2" fill="#f8f7ff"/>
	<circle cx="152" cy="1285" r="1" fill="#aabfff"/>
	<circle cx="265" cy="1304" r="3" fill="#aabfff"/>
	<circle cx="300" cy="1302" r="1" fill="#f8f7ff"/>
	<circle cx="335" cy="1298" r="2" fill="#ffcc6f"/>
	<circle cx="368" cy="1292" r="1" fill="#ffcc6f"/>
	<circle cx="418" cy="1306" r="1" fill="#ffcc6f"/>
	<circle cx="458" cy="1301" r="1" fill="#ffd2a1"/>
	<circle cx="847" cy="1309" r="2" fill="#ffd2a1"/>
	<circle cx="1080" cy="1287" r="1" fill="#9bb0ff"/>
	<circle cx="1114" cy="1291" r="1" fill="#ffd2a1"/>
	<circle cx="1494" cy="1288" r="2" fill="#ffcc6f"/>
	<circle cx="1713" cy="1296" r="1" fill="#ffd2a1"/>
	<circle cx="1772" cy="1309" r="3" fill="#ffd2a1"/>
	<circle cx="1928" cy="1284" r="1" fill="#aabfff"/>
	<circle cx="2020" cy="1281" r="2" fill="#9bb0ff"/>
	<circle cx="512" cy="1322" r="1" fill="#9bb0ff"/>
	<circle cx="698" cy="1333" r="3" fill="#9bb0ff"/>
	<circle cx="845" cy="1340" r="1" fill="#aabfff"/>
	<circle cx="896" cy="1330" r="1" fill="#ffd2a1"/>
	<circle cx="925" cy="1321" r="1" fill="#aabfff"/>
	<circle cx="1142" cy="1343" r="3" fill="#ffcc6f"/>
	<circle cx="1352" cy="1324" r="3" fill="#fff4ea"/>
	<circle cx="1497" cy="1324" r="1" fill="#cad7ff"/>
	<circle cx="1521" cy="1341" r="1" fill="#aabfff"/>
	<circle cx="1565" cy="1342" r="3" fill="#ffd2a1"/>
	<circle cx="1729" cy="1325" r="2" fill="#cad7ff"/>
	<circle cx="1857" cy="1334" r="3" fill="#ffd2a1"/>
	<circle cx="1912" cy="1314" r="2" fill="#cad7ff"/>
	<circle cx="1933" cy="1318" r="2" fill="#aabfff"/>
	<circle cx="255" cy="1361" r="3" fill="#f8f7ff"/>
	<circle cx="431" cy="1375" r="1" fill="#ffd2a1"/>
	<circle cx="626" cy="1372" r="3" fill="#aabfff"/>
	<circle cx="762" cy="1375" r="3" fill="#ffd2a1"/>
	<circle cx="911" cy="1368" r="3" fill="#9bb0ff"/>
	<circle cx="987" cy="1359" r="3" fill="#f8f7ff"/>
	<circle cx="1257" cy="1365" r="2" fill="#9bb0ff"/>
	<circle cx="1502" cy="1352" r="2" fill="#aabfff"/>
	<circle cx="1536" cy="1355" r="2" fill="#cad7ff"/>
	<circle cx="1740" cy="1355" r="3" fill="#ffcc6f"/>
	<circle cx="1846" cy="1376" r="3" fill="#aabfff"/>
	<circle cx="1950" cy="1368" r="3" fill="#f8f7ff"/>
	<circle cx="143" cy="1398" r="1" fill="#fff4ea"/>
	<circle cx="329" cy="1398" r="1" fill="#aabfff"/>
	<circle cx="428" cy="1404" r="2" fill="#ffd2a1"/>
	<circle cx="761" cy="1377" r="2" fill="#f8f7ff"/>
	<circle cx="816" cy="1381" r="1" fill="#ffd2a1"/>
	<circle cx="914" cy="1395" r="3" fill="#ffcc6f"/>
	<circle cx="950" cy="1383" r="1" fill="#cad7ff"/>
	<circle cx="1022" cy="1378" r="1" fill="#aabfff"/>
	<circle cx="1099" cy="1405" r="3" fill="#cad7ff"/>
	<circle cx="1128" cy="1400" r="3" fill="#ffd2a1"/>
	<circle cx="1175" cy="1406" r="1" fill="#fff4ea"/>
	<circle cx="1188" cy="1398" r="2" fill="#fff4ea"/>
	<circle cx="1389" cy="1378" r="2" fill="#fff4ea"/>
	<circle cx="1428" cy="1404" r="1" fill="#ffd2a1"/>
	<circle cx="1511" cy="1398" r="2" fill="#aabfff"/>
	<circle cx="1581" cy="1385" r="3" fill="#aabfff"/>
	<circle cx="17" cy="1394" r="2" fill="#fff4ea"/>
	<circle cx="305" cy="1437" r="1" fill="#ffcc6f"/>
	<circle cx="491" cy="1437" r="2" fill="#ffd2a1"/>
	<circle cx="674" cy="1422" r="1" fill="#ffcc6f"/>
	<circle cx="820" cy="1436" r="3" fill="#fff4ea"/>
	<circle cx="1135" cy="1423" r="1" fill="#aabfff"/>
	<circle cx="1387" cy="1416" r="1" fill="#fff4ea"/>
	<circle cx="1481" cy="1434" r="1" fill="#f8f7ff"/>
	<circle cx="1687" cy="1419" r="2" fill="#aabfff"/>
	<circle cx="2005" cy="1432" r="1" fill="#fff4ea"/>
	<circle cx="304" cy="1442" r="3" fill="#cad7ff"/>
	<circle cx="340" cy="1454" r="3" fill="#cad7ff"/>
	<circle cx="376" cy="1469" r="1" fill="#cad7ff"/>
	<circle cx="428" cy="1444" r="3" fill="#ffd2a1"/>
	<circle cx="558" cy="1440" r="3" fill="#cad7ff"/>
	<circle cx="613" cy="1468" r="1" fill="#fff4ea"/>
	<circle cx="975" cy="1461" r="1" fill="#ffcc6f"/>
	<circle cx="1300" cy="1464" r="2" fill="#ffd2a1"/>
	<circle cx="1503" cy="1467" r="2" fill="#fff4ea"/>
	<circle cx="1909" cy="1465" r="1" fill="#ffcc6f"/>
	<circle cx="52" cy="1501" r="1" fill="#ffcc6f"/>
	<circle cx="297" cy="1479" r="1" fill="#aabfff"/>
	<circle cx="414" cy="1475" r="3" fill="#aabfff"/>
	<circle cx="441" cy="1491" r="2" fill="#aabfff"/>
	<circle cx="1222" cy="1495" r="3" fill="#cad7ff"/>
	<circle cx="1286" cy="1479" r="1" fill="#ffd2a1"/>
	<circle cx="1459" cy="1479" r="2" fill="#ffcc6f"/>
	<circle cx="1566" cy="1487" r="1" fill="#cad7ff"/>
	<circle cx="1674" cy="1491" r="3" fill="#aabfff"/>
	<circle cx="1913" cy="1494" r="1" fill="#aabfff"/>
	<circle cx="1926" cy="1490" r="3" fill="#ffd2a1"/>
	<circle cx="2032" cy="1492" r="2" fill="#f8f7ff"/>
	<circle cx="30" cy="1474" r="3" fill="#fff4ea"/>
	<circle cx="59" cy="1534" r="2" fill="#f8f7ff"/>
	<circle cx="345" cy="1529" r="3" fill="#fff4ea"/>
	<circle cx="385" cy="1515" r="2" fill="#ffcc6f"/>
	<circle cx="1130" cy="1527" r="1" fill="#ffcc6f"/>
	<circle cx="1170" cy="1522" r="2" fill="#fff4ea"/>
	<circle cx="1229" cy="1513" r="3" fill="#fff4ea"/>
	<circle cx="1604" cy="1518" r="2" fill="#fff4ea"/>
	<circle cx="1789" cy="1512" r="1" fill="#ffcc6f"/>
	<circle cx="1810" cy="1532" r="1" fill="#cad7ff"/>
	<circle cx="18" cy="1527" r="1" fill="#cad7ff"/>
	<circle cx="275" cy="1554" r="3" fill="#ffcc6f"/>
	<circle cx="398" cy="1547" r="3" fill="#fff4ea"/>
	<circle cx="893" cy="1552" r="1" fill="#cad7ff"/>
	<circle cx="931" cy="1556" r="3" fill="#cad7ff"/>
	<circle cx="1305" cy="1553" r="1" fill="#cad7ff"/>
	<circle cx="1518" cy="1564" r="1" fill="#9bb0ff"/>
	<circle cx="1550" cy="1547" r="1" fill="#f8f7ff"/>
	<circle cx="1801" cy="1551" r="1" fill="#aabfff"/>
	<circle cx="1859" cy="1542" r="1" fill="#cad7ff"/>
	<circle cx="214" cy="1597" r="3" fill="#cad7ff"/>
	<circle cx="290" cy="1580" r="3" fill="#f8f7ff"/>
	<circle cx="484" cy="1584" r="2" fill="#f8f7ff"/>
	<circle cx="526" cy="1597" r="1" fill="#ffcc6f"/>
	<circle cx="848" cy="1592" r="2" fill="#fff4ea"/>
	<circle cx="954" cy="1575" r="2" fill="#ffcc6f"/>
	<circle cx="1021" cy="1593" r="1" fill="#fff4ea"/>
	<circle cx="1121" cy="1580" r="2" fill="#aabfff"/>
	<circle cx="1156" cy="1575" r="2" fill="#9bb0ff"/>
	<circle cx="1283" cy="1570" r="1" fill="#aabfff"/>
	<circle cx="1321" cy="1589" r="2" fill="#9bb0ff"/>
	<circle cx="1370" cy="1575" r="2" fill="#9bb0ff"/>
	<circle cx="1413" cy="1590" r="1" fill="#f8f7ff"/>
	<circle cx="1571" cy="1574" r="1" fill="#ffcc6f"/>
	<circle cx="1872" cy="1572" r="1" fill="#ffcc6f"/>
	<circle cx="486" cy="1614" r="1" fill="#ffd2a1"/>
	<circle cx="830" cy="1629" r="1" fill="#9bb0ff"/>
	<circle cx="844" cy="1614" r="1" fill="#cad7ff"/>
	<circle cx="1112" cy="1611" r="1" fill="#fff4ea"/>
	<circle cx="1144" cy="1603" r="3" fill="#ffcc6f"/>
	<circle cx="1359" cy="1604" r="1" fill="#ffd2a1"/>
	<circle cx="1410" cy="1623" r="3" fill="#aabfff"/>
	<circle cx="1544" cy="1601" r="3" fill="#fff4ea"/>
	<circle cx="1596" cy="1624" r="2" fill="#aabfff"/>
	<circle cx="1626" cy="1626" r="1" fill="#aabfff"/>
	<circle cx="1788" cy="1626" r="2" fill="#f8f7ff"/>
	<circle cx="1946" cy="1611" r="2" fill="#f8f7ff"/>
	<circle cx="2020" cy="1626" r="1" fill="#fff4ea"/>
	<circle cx="2" cy="1618" r="2" fill="#cad7ff"/>
	<circle cx="211" cy="1652" r="1" fill="#ffd2a1"/>
	<circle cx="244" cy="1642" r="1" fill="#cad7ff"/>
	<circle cx="286" cy="1657" r="1" fill="#ffcc6f"/>
	<circle cx="380" cy="1656" r="3" fill="#aabfff"/>
	<circle cx="625" cy="1643" r="1" fill="#9bb0ff"/>
	<circle cx="840" cy="1635" r="2" fill="#9bb0ff"/>
	<circle cx="922" cy="1647" r="2" fill="#cad7ff"/>
	<circle cx="1304" cy="1637" r="3" fill="#cad7ff"/>
	<circle cx="1424" cy="1656" r="2" fill="#aabfff"/>
	<circle cx="1730" cy="1657" r="2" fill="#9bb0ff"/>
	<circle cx="1803" cy="1637" r="2" fill="#f8f7ff"/>
	<circle cx="108" cy="1690" r="3" fill="#fff4ea"/>
	<circle cx="211" cy="1669" r="2" fill="#fff4ea"/>
	<circle cx="253" cy="1694" r="3" fill="#fff4ea"/>
	<circle cx="262" cy="1695" r="2" fill="#cad7ff"/>
	<circle cx="468" cy="1694" r="1" fill="#ffcc6f"/>
	<circle cx="529" cy="1694" r="2" fill="#aabfff"/>
	<circle cx="555" cy="1667" r="1" fill="#9bb0ff"/>
	<circle cx="913" cy="1683" r="2" fill="#9bb0ff"/>
	<circle cx="975" cy="1692" r="1" fill="#f8f7ff"/>
	<circle cx="1306" cy="1681" r="3" fill="#aabfff"/>
	<circle cx="1336" cy="1689" r="1" fill="#fff4ea"/>
	<circle cx="1528" cy="1686" r="1" fill="#9bb0ff"/>
	<circle cx="1691" cy="1667" r="2" fill="#aabfff"/>
	<circle cx="1922" cy="1667" r="2" fill="#aabfff"/>
	<circle cx="1990" cy="1689" r="1" fill="#ffcc6f"/>
	<circle cx="131" cy="1704" r="1" fill="#ffd2a1"/>
	<circle cx="183" cy="1717" r="3" fill="#9bb0ff"/>
	<circle cx="395" cy="1696" r="2" fill="#cad7ff"/>
	<circle cx="515" cy="1711" r="3" fill="#ffcc6f"/>
	<circle cx="675" cy="1723" r="2" fill="#ffcc6f"/>
	<circle cx="826" cy="1707" r="1" fill="#cad7ff"/>
	<circle cx="1515" cy="1696" r="2" fill="#f8f7ff"/>
	<circle cx="1584" cy="1703" r="2" fill="#cad7ff"/>
	<circle cx="1798" cy="1713" r="1" fill="#f8f7ff"/>
	<circle cx="1999" cy="1708" r="3" fill="#aabfff"/>
	<circle cx="2043" cy="1713" r="2" fill="#fff4ea"/>
	<circle cx="60" cy="1759" r="2" fill="#cad7ff"/>
	<circle cx="207" cy="1752" r="2" fill="#f8f7ff"/>
	<circle cx="457" cy="1741" r="1" fill="#f8f7ff"/>
	<circle cx="735" cy="1748" r="2" fill="#cad7ff"/>
	<circle cx="803" cy="1760" r="2" fill="#f8f7ff"/>
	<circle cx="1181" cy="1730" r="2" fill="#cad7ff"/>
	<circle cx="1243" cy="1741" r="1" fill="#f8f7ff"/>
	<circle cx="1285" cy="1757" r="3" fill="#9bb0ff"/>
	<circle cx="1725" cy="1752" r="2" fill="#aabfff"/>
	<circle cx="1975" cy="1756" r="2" fill="#9bb0ff"/>
	<circle cx="15" cy="1736" r="1" fill="#f8f7ff"/>
	<circle cx="115" cy="1790" r="1" fill="#f8f7ff"/>
	<circle cx="387" cy="1763" r="1" fill="#9bb0ff"/>
	<circle cx="421" cy="1779" r="2" fill="#fff4ea"/>
	<circle cx="462" cy="1765" r="1" fill="#fff4ea"/>
	<circle cx="489" cy="1760" r="3" fill="#ffcc6f"/>
	<circle cx="639" cy="1781" r="2" fill="#aabfff"/>
	<circle cx="868" cy="1775" r="1" fill="#ffcc6f"/>
	<circle cx="1047" cy="1782" r="2" fill="#ffd2a1"/>
	<circle cx="1303" cy="1784" r="2" fill="#ffcc6f"/>
	<circle cx="1351" cy="1779" r="2" fill="#ffcc6f"/>
	<circle cx="1477" cy="1767" r="2" fill="#9bb0ff"/>
	<circle cx="1508" cy="1781" r="3" fill="#aabfff"/>
	<circle cx="1693" cy="1776" r="3" fill="#aabfff"/>
	<circle cx="1971" cy="1775" r="1" fill="#aabfff"/>
	<circle cx="2002" cy="1785" r="3" fill="#aabfff"/>
	<circle cx="195" cy="1794" r="1" fill="#fff4ea"/>
	<circle cx="533" cy="1821" r="2" fill="#f8f7ff"/>
	<circle cx="631" cy="1801" r="1" fill="#ffcc6f"/>
	<circle cx="1423" cy="1796" r="2" fill="#ffd2a1"/>
	<circle cx="1474" cy="1799" r="3" fill="#ffcc6f"/>
	<circle cx="1807" cy="1815" r="3" fill="#f8f7ff"/>
	<circle cx="1840" cy="1795" r="3" fill="#cad7ff"/>
	<circle cx="1884" cy="1822" r="1" fill="#9bb0ff"/>
	<circle cx="1944" cy="1794" r="2" fill="#ffcc6f"/>
	<circle cx="59" cy="1830" r="2" fill="#9bb0ff"/>
	<circle cx="232" cy="1853" r="3" fill="#aabfff"/>
	<circle cx="288" cy="1839" r="1" fill="#ffcc6f"/>
	<circle cx="412" cy="1827" r="3" fill="#cad7ff"/>
	<circle cx="488" cy="1840" r="2" fill="#f8f7ff"/>
	<circle cx="523" cy="1828" r="1" fill="#cad7ff"/>
	<circle cx="552" cy="1850" r="2" fill="#cad7ff"/>
	<circle cx="643" cy="1850" r="3" fill="#aabfff"/>
	<circle cx="944" cy="1838" r="1" fill="#fff4ea"/>
	<circle cx="1031" cy="1826" r="2" fill="#cad7ff"/>
	<circle cx="1084" cy="1836" r="3" fill="#cad7ff"/>
	<circle cx="1098" cy="1853" r="3" fill="#cad7ff"/>
	<circle cx="1237" cy="1839" r="1" fill="#9bb0ff"/>
	<circle cx="1281" cy="1843" r="2" fill="#ffd2a1"/>
	<circle cx="1524" cy="1840" r="1" fill="#f8f7ff"/>
	<circle cx="1952" cy="1846" r="1" fill="#ffcc6f"/>
	<circle cx="2023" cy="1829" r="2" fill="#9bb0ff"/>
	<circle cx="27" cy="1842" r="1" fill="#f8f7ff"/>
	<circle cx="373" cy="1867" r="1" fill="#cad7ff"/>
	<circle cx="391" cy="1856" r="2" fill="#ffcc6f"/>
	<circle cx="735" cy="1870" r="1" fill="#ffcc6f"/>
	<circle cx="952" cy="1877" r="1" fill="#f8f7ff"/>
	<circle cx="1029" cy="1874" r="1" fill="#cad7ff"/>
	<circle cx="1090" cy="1864" r="2" fill="#fff4ea"/>
	<circle cx="1133" cy="1866" r="1" fill="#ffd2a1"/>
	<circle cx="1505" cy="1872" r="1" fill="#f8f7ff"/>
	<circle cx="1536" cy="1883" r="2" fill="#9bb0ff"/>
	<circle cx="253" cy="1917" r="3" fill="#9bb0ff"/>
	<circle cx="412" cy="1908" r="2" fill="#f8f7ff"/>
	<circle cx="614" cy="1889" r="2" fill="#f8f7ff"/>
	<circle cx="770" cy="1913" r="2" fill="#ffd2a1"/>
	<circle cx="874" cy="1894" r="1" fill="#cad7ff"/>
	<circle cx="1038" cy="1909" r="3" fill="#9bb0ff"/>
	<circle cx="1137" cy="1912" r="2" fill="#ffd2a1"/>
	<circle cx="1170" cy="1902" r="3" fill="#ffcc6f"/>
	<circle cx="1261" cy="1917" r="3" fill="#cad7ff"/>
	<circle cx="1303" cy="1890" r="3" fill="#aabfff"/>
	<circle cx="1361" cy="1911" r="2" fill="#ffcc6f"/>
	<circle cx="1463" cy="1889" r="1" fill="#aabfff"/>
	<circle cx="1607" cy="1902" r="3" fill="#9bb0ff"/>
	<circle cx="1658" cy="1910" r="2" fill="#aabfff"/>
	<circle cx="1839" cy="1909" r="3" fill="#cad7ff"/>
	<circle cx="1904" cy="1911" r="2" fill="#9bb0ff"/>
	<circle cx="95" cy="1933" r="3" fill="#fff4ea"/>
	<circle cx="444" cy="1928" r="1" fill="#9bb0ff"/>
	<circle cx="484" cy="1939" r="2" fill="#ffcc6f"/>
	<circle cx="578" cy="1944" r="3" fill="#f8f7ff"/>
	<circle cx="617" cy="1937" r="2" fill="#ffd2a1"/>
	<circle cx="843" cy="1941" r="3" fill="#ffcc6f"/>
	<circle cx="895" cy="1939" r="1" fill="#f8f7ff"/>
	<circle cx="1571" cy="1940" r="2" fill="#aabfff"/>
	<circle cx="2012" cy="1945" r="3" fill="#ffd2a1"/>
	<circle cx="166" cy="1971" r="2" fill="#cad7ff"/>
	<circle cx="225" cy="1961" r="2" fill="#ffcc6f"/>
	<circle cx="321" cy="1963" r="1" fill="#aabfff"/>
	<circle cx="379" cy="1978" r="2" fill="#9bb0ff"/>
	<circle cx="447" cy="1973" r="3" fill="#cad7ff"/>
	<circle cx="556" cy="1953" r="1" fill="#cad7ff"/>
	<circle cx="726" cy="1958" r="2" fill="#f8f7ff"/>
	<circle cx="852" cy="1980" r="1" fill="#ffcc6f"/>
	<circle cx="1376" cy="1965" r="2" fill="#ffcc6f"/>
	<circle cx="1468" cy="1982" r="1" fill="#9bb0ff"/>
	<circle cx="1746" cy="1981" r="1" fill="#ffcc6f"/>
	<circle cx="16" cy="1964" r="2" fill="#f8f7ff"/>
	<circle cx="417" cy="2005" r="3" fill="#aabfff"/>
	<circle cx="493" cy="1990" r="2" fill="#fff4ea"/>
	<circle cx="576" cy="2011" r="1" fill="#ffd2a1"/>
	<circle cx="787" cy="1991" r="1" fill="#fff4ea"/>
	<circle cx="998" cy="1990" r="1" fill="#ffd2a1"/>
	<circle cx="1086" cy="1996" r="3" fill="#ffcc6f"/>
	<circle cx="1156" cy="2005" r="2" fill="#ffcc6f"/>
	<circle cx="1223" cy="1997" r="1" fill="#f8f7ff"/>
	<circle cx="1328" cy="2004" r="1" fill="#aabfff"/>
	<circle cx="1720" cy="1999" r="2" fill="#fff4ea"/>
	<circle cx="1775" cy="2006" r="1" fill="#aabfff"/>
	<circle cx="1832" cy="1990" r="3" fill="#aabfff"/>
	<circle cx="1934" cy="2009" r="3" fill="#cad7ff"/>
	<circle cx="91" cy="2023" r="1" fill="#cad7ff"/>
	<circle cx="658" cy="2026" r="2" fill="#9bb0ff"/>
	<circle cx="1012" cy="2022" r="1" fill="#f8f7ff"/>
	<circle cx="1072" cy="2043" r="3" fill="#f8f7ff"/>
	<circle cx="1300" cy="2026" r="1" fill="#fff4ea"/>
	<circle cx="1351" cy="2032" r="1" fill="#cad7ff"/>
	<circle cx="1407" cy="2019" r="1" fill="#ffcc6f"/>
	<circle cx="1557" cy="2038" r="2" fill="#f8f7ff"/>
	<circle cx="1831" cy="2035" r="2" fill="#aabfff"/>
	<circle cx="2021" cy="2023" r="3" fill="#cad7ff"/>
	<circle cx="295" cy="19" r="1" fill="#fff4ea"/>
	<circle cx="548" cy="20" r="2" fill="#ffcc6f"/>
	<circle cx="747" cy="25" r="3" fill="#aabfff"/>
	<circle cx="827" cy="23" r="3" fill="#ffd2a1"/>
	<circle cx="868" cy="25" r="2" fill="#fff4ea"/>
	<circle cx="898" cy="16" r="2" fill="#aabfff"/>
	<circle cx="955" cy="17" r="1" fill="#cad7ff"/>
	<circle cx="970" cy="29" r="2" fill="#ffd2a1"/>
	<circle cx="1167" cy="22" r="2" fill="#fff4ea"/>
	<circle cx="1565" cy="6" r="3" fill="#ffcc6f"/>
</svg>
