<?xml version="1.0" encoding="UTF-8" standalone="no"?>
<svg xmlns="http://www.w3.org/2000/svg" width="2048" height="2048" viewport="0 0 2048 2048">
	<defs>
		<linearGradient id="a" x1="0%" y1="0%" x2="100%" y2="0%">
			<stop offset="0%" style="stop-color:rgba(21,60,12,1)"/>
			<stop offset="50%" style="stop-color:rgba(77,25,35,1)"/>
			<stop offset="100%" style="stop-color:rgba(0,84,82,1)"/>
		</linearGradient>
	</defs>
	<rect width="100%" height="100%" fill="url(#a)"/>
	<circle cx="128" cy="40" r="2" fill="#9bb0ff"/>
	<circle cx="200" cy="36" r="1" fill="#cad7ff"/>
	<circle cx="541" cy="55" r="2" fill="#ffd2a1"/>
	<circle cx="1111" cy="42" r="2" fill="#aabfff"/>
	<circle cx="1151" cy="40" r="1" fill="#aabfff"/>
	<circle cx="1228" cy="40" r="2" fill="#ffcc6f"/>
	<circle cx="1356" cy="37" r="1" fill="#cad7ff"/>
	<circle cx="1432" cy="33" r="1" fill="#ffcc6f"/>
	<circle cx="1987" cy="47" r="1" fill="#fff4ea"/>
	<circle cx="37" cy="88" r="2" fill="#9bb0ff"/>
	<circle cx="103" cy="95" r="2" fill="#fff4ea"/>
	<circle cx="575" cy="81" r="1" fill="#cad7ff"/>
	<circle cx="779" cy="88" r="3" fill="#ffcc6f"/>
	<circle cx="1096" cy="82" r="1" fill="#ffd2a1"/>
	<circle cx="1128" cy="86" r="3" fill="#f8f7ff"/>
	<circle cx="1447" cy="67" r="3" fill="#f8f7ff"/>
	<circle cx="1550" cy="80" r="2" fill="#cad7ff"/>
	<circle cx="1752" cy="86" r="2" fill="#f8f7ff"/>
	<circle cx="1855" cy="96" r="2" fill="#ffcc6f"/>
	<circle cx="1942" cy="82" r="2" fill="#aabfff"/>
	<circle cx="32" cy="101" r="3" fill="#9bb0ff"/>
	<circle cx="226" cy="116" r="3" fill="#9bb0ff"/>
	<circle cx="489" cy="97" r="2" fill="#ffcc6f"/>
	<circle cx="1100" cy="108" r="2" fill="#ffd2a1"/>
	<circle cx="1211" cy="103" r="1" fill="#f8f7ff"/>
	<circle cx="1241" cy="117" r="1" fill="#ffd2a1"/>
	<circle cx="1927" cy="107" r="2" fill="#f8f7ff"/>
	<circle cx="145" cy="155" r="1" fill="#9bb0ff"/>
	<circle cx="291" cy="159" r="2" fill="#ffd2a1"/>
	<circle cx="333" cy="132" r="3" fill="#f8f7ff"/>
	<circle cx="394" cy="144" r="1" fill="#aabfff"/>
	<circle cx="713" cy="158" r="1" fill="#fff4ea"/>
	<circle cx="1026" cy="143" r="3" fill="#f8f7ff"/>
	<circle cx="1121" cy="150" r="2" fill="#ffd2a1"/>
	<circle cx="1321" cy="154" r="2" fill="#f8f7ff"/>
	<circle cx="1621" cy="158" r="1" fill="#ffd2a1"/>
	<circle cx="1930" cy="147" r="3" fill="#ffcc6f"/>
	<circle cx="151" cy="191" r="1" fill="#ffcc6f"/>
	<circle cx="165" cy="177" r="2" fill="#ffcc6f"/>
	<circle cx="405" cy="160" r="2" fill="#9bb0ff"/>
	<circle cx="503" cy="172" r="3" fill="#ffd2a1"/>
	<circle cx="630" cy="166" r="3" fill="#ffd2a1"/>
	<circle cx="688" cy="175" r="1" fill="#fff4ea"/>
	<circle cx="803" cy="164" r="1" fill="#f8f7ff"/>
	<circle cx="845" cy="169" r="1" fill="#ffcc6f"/>
	<circle cx="1058" cy="171" r="1" fill="#cad7ff"/>
	<circle cx="1101" cy="161" r="1" fill="#ffd2a1"/>
	<circle cx="1474" cy="172" r="1" fill="#ffcc6f"/>
	<circle cx="1683" cy="172" r="1" fill="#ffcc6f"/>
	<circle cx="1794" cy="172" r="2" fill="#9bb0ff"/>
	<circle cx="1880" cy="188" r="3" fill="#cad7ff"/>
	<circle cx="1899" cy="182" r="1" fill="#cad7ff"/>
	<circle cx="115" cy="199" r="1" fill="#ffd2a1"/>
	<circle cx="153" cy="218" r="2" fill="#fff4ea"/>
	<circle cx="217" cy="203" r="1" fill="#cad7ff"/>
	<circle cx="411" cy="195" r="1" fill="#ffd2a1"/>
	<circle cx="838" cy="211" r="2" fill="#cad7ff"/>
	<circle cx="1075" cy="213" r="1" fill="#ffd2a1"/>
	<circle cx="1119" cy="210" r="2" fill="#fff4ea"/>
	<circle cx="1189" cy="194" r="3" fill="#aabfff"/>
	<circle cx="1256" cy="204" r="2" fill="#cad7ff"/>
	<circle cx="1287" cy="211" r="2" fill="#aabfff"/>
	<circle cx="1843" cy="221" r="2" fill="#f8f7ff"/>
	<circle cx="1920" cy="196" r="3" fill="#cad7ff"/>
	<circle cx="2023" cy="192" r="2" fill="#f8f7ff"/>
	<circle cx="62" cy="237" r="3" fill="#fff4ea"/>
	<circle cx="79" cy="237" r="3" fill="#ffd2a1"/>
	<circle cx="203" cy="242" r="2" fill="#9bb0ff"/>
	<circle cx="370" cy="247" r="3" fill="#ffd2a1"/>
	<circle cx="451" cy="242" r="3" fill="#cad7ff"/>
	<circle cx="500" cy="229" r="1" fill="#cad7ff"/>
	<circle cx="534" cy="239" r="1" fill="#ffd2a1"/>
	<circle cx="910" cy="227" r="3" fill="#aabfff"/>
	<circle cx="1101" cy="231" r="1" fill="#cad7ff"/>
	<circle cx="1199" cy="233" r="3" fill="#fff4ea"/>
	<circle cx="1591" cy="255" r="3" fill="#aabfff"/>
	<circle cx="1642" cy="239" r="2" fill="#ffcc6f"/>
	<circle cx="2009" cy="253" r="1" fill="#f8f7ff"/>
	<circle cx="2044" cy="245" r="3" fill="#ffcc6f"/>
	<circle cx="2052" cy="245" r="3" fill="#ffd2a1"/>
	<circle cx="45" cy="272" r="2" fill="#ffd2a1"/>
	<circle cx="68" cy="260" r="2" fill="#cad7ff"/>
	<circle cx="282" cy="287" r="2" fill="#ffcc6f"/>
	<circle cx="556" cy="281" r="2" fill="#ffcc6f"/>
	<circle cx="982" cy="267" r="1" fill="#9bb0ff"/>
	<circle cx="1100" cy="262" r="2" fill="#ffd2a1"/>
	<circle cx="1220" cy="287" r="1" fill="#aabfff"/>
	<circle cx="1304" cy="276" r="2" fill="#cad7ff"/>
	<circle cx="1460" cy="275" r="3" fill="#9bb0ff"/>
	<circle cx="1918" cy="269" r="1" fill="#ffcc6f"/>
	<circle cx="256" cy="306" r="2" fill="#aabfff"/>
	<circle cx="268" cy="316" r="2" fill="#fff4ea"/>
	<circle cx="406" cy="294" r="1" fill="#ffcc6f"/>
	<circle cx="694" cy="317" r="2" fill="#ffd2a1"/>
	<circle cx="707" cy="305" r="2" fill="#ffd2a1"/>
	<circle cx="793" cy="305" r="3" fill="#9bb0ff"/>
	<circle cx="867" cy="303" r="2" fill="#cad7ff"/>
	<circle cx="937" cy="298" r="1" fill="#ffd2a1"/>
	<circle cx="1040" cy="295" r="1" fill="#ffcc6f"/>
	<circle cx="1114" cy="317" r="1" fill="#ffcc6f"/>
	<circle cx="1761" cy="290" r="3" fill="#aabfff"/>
	<circle cx="2059" cy="316" r="1" fill="#ffd2a1"/>
	<circle cx="37" cy="321" r="1" fill="#aabfff"/>
	<circle cx="144" cy="346" r="1" fill="#9bb0ff"/>
	<circle cx="311" cy="329" r="3" fill="#cad7ff"/>
	<circle cx="322" cy="351" r="2" fill="#fff4ea"/>
	<circle cx="599" cy="342" r="1" fill="#ffcc6f"/>
	<circle cx="700" cy="331" r="1" fill="#fff4ea"/>
	<circle cx="866" cy="349" r="2" fill="#cad7ff"/>
	<circle cx="907" cy="335" r="3" fill="#ffcc6f"/>
	<circle cx="1020" cy="342" r="2" fill="#9bb0ff"/>
	<circle cx="1060" cy="338" r="1" fill="#9bb0ff"/>
	<circle cx="1462" cy="333" r="1" fill="#ffcc6f"/>
	<circle cx="1932" cy="335" r="1" fill="#f8f7ff"/>
	<circle cx="2028" cy="340" r="1" fill="#cad7ff"/>
	<circle cx="2074" cy="326" r="1" fill="#cad7ff"/>
	<circle cx="242" cy="359" r="1" fill="#cad7ff"/>
	<circle cx="289" cy="358" r="1" fill="#ffcc6f"/>
	<circle cx="394" cy="368" r="2" fill="#fff4ea"/>
	<circle cx="716" cy="352" r="3" fill="#ffd2a1"/>
	<circle cx="1092" cy="354" r="3" fill="#fff4ea"/>
	<circle cx="1311" cy="353" r="3" fill="#f8f7ff"/>
	<circle cx="1314" cy="360" r="3" fill="#aabfff"/>
	<circle cx="1441" cy="382" r="1" fill="#9bb0ff"/>
	<circle cx="1784" cy="357" r="1" fill="#ffd2a1"/>
	<circle cx="1819" cy="361" r="3" fill="#cad7ff"/>
	<circle cx="1840" cy="363" r="2" fill="#f8f7ff"/>
	<circle cx="1860" cy="376" r="1" fill="#ffcc6f"/>
	<circle cx="2011" cy="371" r="2" fill="#9bb0ff"/>
	<circle cx="202" cy="407" r="1" fill="#aabfff"/>
	<circle cx="267" cy="402" r="1" fill="#f8f7ff"/>
	<circle cx="310" cy="399" r="2" fill="#cad7ff"/>
	<circle cx="599" cy="410" r="1" fill="#9bb0ff"/>
	<circle cx="617" cy="414" r="1" fill="#fff4ea"/>
	<circle cx="693" cy="408" r="3" fill="#cad7ff"/>
	<circle cx="969" cy="416" r="2" fill="#ffcc6f"/>
	<circle cx="1091" cy="385" r="1" fill="#aabfff"/>
	<circle cx="1398" cy="388" r="1" fill="#cad7ff"/>
	<circle cx="1478" cy="393" r="3" fill="#ffd2a1"/>
	<circle cx="1512" cy="405" r="2" fill="#9bb0ff"/>
	<circle cx="1582" cy="412" r="2" fill="#ffd2a1"/>
	<circle cx="1695" cy="399" r="2" fill="#fff4ea"/>
	<circle cx="1892" cy="399" r="3" fill="#cad7ff"/>
	<circle cx="2018" cy="404" r="3" fill="#cad7ff"/>
	<circle cx="229" cy="424" r="3" fill="#f8f7ff"/>
	<circle cx="284" cy="442" r="2" fill="#aabfff"/>
	<circle cx="491" cy="435" r="1" fill="#ffd2a1"/>
	<circle cx="693" cy="439" r="2" fill="#cad7ff"/>
	<circle cx="1010" cy="422" r="1" fill="#ffcc6f"/>
	<circle cx="1054" cy="431" r="3" fill="#ffcc6f"/>
	<circle cx="1335" cy="443" r="3" fill="#9bb0ff"/>
	<circle cx="1558" cy="423" r="3" fill="#ffd2a1"/>
	<circle cx="1628" cy="427" r="1" fill="#ffcc6f"/>
	<circle cx="1898" cy="422" r="1" fill="#ffcc6f"/>
	<circle cx="2032" cy="448" r="1" fill="#fff4ea"/>
	<circle cx="2056" cy="421" r="1" fill="#f8f7ff"/>
	<circle cx="213" cy="480" r="2" fill="#9bb0ff"/>
	<circle cx="292" cy="477" r="1" fill="#ffcc6f"/>
	<circle cx="341" cy="470" r="3" fill="#ffcc6f"/>
	<circle cx="464" cy="474" r="3" fill="#ffd2a1"/>
	<circle cx="649" cy="460" r="3" fill="#9bb0ff"/>
	<circle cx="746" cy="458" r="3" fill="#f8f7ff"/>
	<circle cx="950" cy="457" r="1" fill="#aabfff"/>
	<circle cx="976" cy="475" r="2" fill="#ffd2a1"/>
	<circle cx="1117" cy="463" r="1" fill="#ffd2a1"/>
	<circle cx="1192" cy="471" r="1" fill="#ffd2a1"/>
	<circle cx="1402" cy="448" r="3" fill="#ffd2a1"/>
	<circle cx="1564" cy="467" r="3" fill="#ffd2a1"/>
	<circle cx="1687" cy="478" r="1" fill="#aabfff"/>
	<circle cx="1712" cy="456" r="3" fill="#f8f7ff"/>
	<circle cx="113" cy="489" r="2" fill="#9bb0ff"/>
	<circle cx="143" cy="511" r="3" fill="#ffcc6f"/>
	<circle cx="202" cy="504" r="1" fill="#f8f7ff"/>
	<circle cx="256" cy="509" r="3" fill="#cad7ff"/>
	<circle cx="529" cy="491" r="1" fill="#ffcc6f"/>
	<circle cx="742" cy="500" r="3" fill="#ffcc6f"/>
	<circle cx="808" cy="495" r="3" fill="#ffcc6f"/>
	<circle cx="851" cy="483" r="3" fill="#aabfff"/>
	<circle cx="894" cy="500" r="2" fill="#ffd2a1"/>
	<circle cx="909" cy="485" r="1" fill="#cad7ff"/>
	<circle cx="952" cy="495" r="2" fill="#fff4ea"/>
	<circle cx="1076" cy="497" r="3" fill="#ffd2a1"/>
	<circle cx="1135" cy="509" r="2" fill="#ffcc6f"/>
	<circle cx="1478" cy="505" r="3" fill="#cad7ff"/>
	<circle cx="1610" cy="495" r="1" fill="#fff4ea"/>
	<circle cx="1684" cy="511" r="2" fill="#aabfff"/>
	<circle cx="1753" cy="497" r="2" fill="#9bb0ff"/>
	<circle cx="84" cy="514" r="2" fill="#ffcc6f"/>
	<circle cx="174" cy="529" r="1" fill="#cad7ff"/>
	<circle cx="305" cy="540" r="3" fill="#aabfff"/>
	<circle cx="336" cy="518" r="3" fill="#fff4ea"/>
	<circle cx="544" cy="535" r="1" fill="#f8f7ff"/>
	<circle cx="638" cy="529" r="3" fill="#cad7ff"/>
	<circle cx="776" cy="528" r="2" fill="#ffd2a1"/>
	<circle cx="1424" cy="524" r="2" fill="#fff4ea"/>
	<circle cx="1581" cy="536" r="2" fill="#fff4ea"/>
	<circle cx="1775" cy="521" r="2" fill="#9bb0ff"/>
	<circle cx="1948" cy="535" r="1" fill="#ffd2a1"/>
	<circle cx="1987" cy="523" r="2" fill="#f8f7ff"/>
	<circle cx="2019" cy="513" r="1" fill="#9bb0ff"/>
	<circle cx="81" cy="562" r="3" fill="#ffcc6f"/>
	<circle cx="231" cy="565" r="1" fill="#fff4ea"/>
	<circle cx="279" cy="563" r="2" fill="#fff4ea"/>
	<circle cx="380" cy="576" r="2" fill="#ffcc6f"/>
	<circle cx="437" cy="552" r="2" fill="#f8f7ff"/>
	<circle cx="615" cy="574" r="3" fill="#9bb0ff"/>
	<circle cx="811" cy="545" r="1" fill="#fff4ea"/>
	<circle cx="871" cy="575" r="3" fill="#ffcc6f"/>
	<circle cx="919" cy="558" r="3" fill="#9bb0ff"/>
	<circle cx="1469" cy="549" r="1" fill="#ffcc6f"/>
	<circle cx="1479" cy="574" r="1" fill="#ffcc6f"/>
	<circle cx="1562" cy="562" r="3" fill="#fff4ea"/>
	<circle cx="1590" cy="572" r="1" fill="#ffd2a1"/>
	<circle cx="1824" cy="575" r="3" fill="#fff4ea"/>
	<circle cx="1897" cy="568" r="2" fill="#cad7ff"/>
	<circle cx="1973" cy="566" r="1" fill="#aabfff"/>
	<circle cx="147" cy="578" r="1" fill="#cad7ff"/>
	<circle cx="246" cy="600" r="3" fill="#cad7ff"/>
	<circle cx="378" cy="604" r="1" fill="#9bb0ff"/>
	<circle cx="443" cy="599" r="3" fill="#ffd2a1"/>
	<circle cx="456" cy="593" r="1" fill="#fff4ea"/>
	<circle cx="952" cy="599" r="1" fill="#fff4ea"/>
	<circle cx="982" cy="600" r="3" fill="#aabfff"/>
	<circle cx="1103" cy="577" r="1" fill="#ffd2a1"/>
	<circle cx="1518" cy="607" r="1" fill="#cad7ff"/>
	<circle cx="1793" cy="594" r="1" fill="#f8f7ff"/>
	<circle cx="1948" cy="594" r="2" fill="#ffd2a1"/>
	<circle cx="2061" cy="603" r="3" fill="#ffd2a1"/>
	<circle cx="67" cy="627" r="3" fill="#aabfff"/>
	<circle cx="141" cy="617" r="2" fill="#fff4ea"/>
	<circle cx="254" cy="627" r="2" fill="#ffd2a1"/>
	<circle cx="331" cy="638" r="2" fill="#ffd2a1"/>
	<circle cx="439" cy="617" r="2" fill="#fff4ea"/>
	<circle cx="501" cy="612" r="1" fill="#fff4ea"/>
	<circle cx="533" cy="610" r="1" fill="#f8f7ff"/>
	<circle cx="692" cy="634" r="3" fill="#9bb0ff"/>
	<circle cx="869" cy="619" r="3" fill="#9bb0ff"/>
	<circle cx="979" cy="623" r="3" fill="#cad7ff"/>
	<circle cx="1069" cy="628" r="1" fill="#9bb0ff"/>
	<circle cx="1141" cy="611" r="2" fill="#ffd2a1"/>
	<circle cx="1688" cy="610" r="3" fill="#9bb0ff"/>
	<circle cx="1787" cy="632" r="1" fill="#ffd2a1"/>
	<circle cx="1833" cy="622" r="2" fill="#fff4ea"/>
	<circle cx="1891" cy="632" r="1" fill="#9bb0ff"/>
	<circle cx="2020" cy="615" r="2" fill="#aabfff"/>
	<circle cx="2063" cy="616" r="2" fill="#ffd2a1"/>
	<circle cx="47" cy="670" r="1" fill="#f8f7ff"/>
	<circle cx="274" cy="645" r="1" fill="#fff4ea"/>
	<circle cx="788" cy="665" r="3" fill="#9bb0ff"/>
	<circle cx="974" cy="650" r="1" fill="#ffcc6f"/>
	<circle cx="1177" cy="642" r="3" fill="#9bb0ff"/>
	<circle cx="1266" cy="672" r="1" fill="#ffd2a1"/>
	<circle cx="1333" cy="644" r="3" fill="#aabfff"/>
	<circle cx="1470" cy="664" r="2" fill="#aabfff"/>
	<circle cx="1486" cy="656" r="2" fill="#aabfff"/>
	<circle cx="1656" cy="667" r="1" fill="#ffd2a1"/>
	<circle cx="1700" cy="658" r="1" fill="#f8f7ff"/>
	<circle cx="1734" cy="664" r="1" fill="#cad7ff"/>
	<circle cx="1904" cy="641" r="2" fill="#fff4ea"/>
	<circle cx="2015" cy="656" r="1" fill="#f8f7ff"/>
	<circle cx="50" cy="704" r="1" fill="#f8f7ff"/>
	<circle cx="77" cy="673" r="3" fill="#f8f7ff"/>
	<circle cx="180" cy="679" r="1" fill="#aabfff"/>
	<circle cx="521" cy="682" r="2" fill="#f8f7ff"/>
	<circle cx="770" cy="682" r="1" fill="#f8f7ff"/>
	<circle cx="845" cy="687" r="1" fill="#ffcc6f"/>
	<circle cx="929" cy="700" r="2" fill="#aabfff"/>
	<circle cx="1001" cy="672" r="1" fill="#fff4ea"/>
	<circle cx="1155" cy="695" r="2" fill="#9bb0ff"/>
	<circle cx="1218" cy="699" r="2" fill="#ffcc6f"/>
	<circle cx="1316" cy="697" r="3" fill="#ffd2a1"/>
	<circle cx="2027" cy="684" r="2" fill="#aabfff"/>
	<circle cx="415" cy="724" r="2" fill="#ffcc6f"/>
	<circle cx="961" cy="705" r="2" fill="#9bb0ff"/>
	<circle cx="1052" cy="726" r="2" fill="#f8f7ff"/>
	<circle cx="1199" cy="711" r="2" fill="#9bb0ff"/>
	<circle cx="1317" cy="706" r="3" fill="#9bb0ff"/>
	<circle cx="1479" cy="722" r="1" fill="#aabfff"/>
	<circle cx="1541" cy="727" r="1" fill="#ffd2a1"/>
	<circle cx="1791" cy="731" r="1" fill="#fff4ea"/>
	<circle cx="1870" cy="729" r="1" fill="#fff4ea"/>
	<circle cx="2033" cy="732" r="3" fill="#aabfff"/>
	<circle cx="134" cy="739" r="1" fill="#ffcc6f"/>
	<circle cx="241" cy="737" r="2" fill="#cad7ff"/>
	<circle cx="387" cy="763" r="2" fill="#aabfff"/>
	<circle cx="481" cy="756" r="1" fill="#ffd2a1"/>
	<circle cx="648" cy="746" r="1" fill="#fff4ea"/>
	<circle cx="777" cy="747" r="2" fill="#ffcc6f"/>
	<circle cx="899" cy="737" r="1" fill="#f8f7ff"/>
	<circle cx="962" cy="739" r="2" fill="#cad7ff"/>
	<circle cx="1054" cy="745" r="1" fill="#ffcc6f"/>
	<circle cx="1396" cy="755" r="1" fill="#ffd2a1"/>
	<circle cx="1687" cy="766" r="1" fill="#fff4ea"/>
	<circle cx="1712" cy="765" r="2" fill="#cad7ff"/>
	<circle cx="1809" cy="751" r="1" fill="#ffcc6f"/>
	<circle cx="1926" cy="753" r="3" fill="#9bb0ff"/>
	<circle cx="2060" cy="744" r="2" fill="#ffd2a1"/>
	<circle cx="141" cy="782" r="1" fill="#9bb0ff"/>
	<circle cx="290" cy="791" r="1" fill="#ffd2a1"/>
	<circle cx="612" cy="785" r="3" fill="#fff4ea"/>
	<circle cx="660" cy="781" r="2" fill="#ffd2a1"/>
	<circle cx="823" cy="778" r="1" fill="#cad7ff"/>
	<circle cx="843" cy="770" r="3" fill="#f8f7ff"/>
	<circle cx="1043" cy="798" r="1" fill="#f8f7ff"/>
	<circle cx="1216" cy="795" r="1" fill="#ffd2a1"/>
	<circle cx="1278" cy="782" r="3" fill="#9bb0ff"/>
	<circle cx="1342" cy="791" r="2" fill="#ffd2a1"/>
	<circle cx="1529" cy="781" r="1" fill="#cad7ff"/>
	<circle cx="1761" cy="771" r="2" fill="#cad7ff"/>
	<circle cx="1986" cy="774" r="1" fill="#f8f7ff"/>
	<circle cx="117" cy="830" r="3" fill="#fff4ea"/>
	<circle cx="200" cy="819" r="3" fill="#9bb0ff"/>
	<circle cx="441" cy="807" r="1" fill="#ffcc6f"/>
	<circle cx="710" cy="811" r="2" fill="#ffcc6f"/>
	<circle cx="756" cy="811" r="1" fill="#cad7ff"/>
	<circle cx="851" cy="830" r="3" fill="#aabfff"/>
	<circle cx="1005" cy="821" r="1" fill="#cad7ff"/>
	<circle cx="1029" cy="817" r="2" fill="#fff4ea"/>
	<circle cx="1428" cy="804" r="1" fill="#aabfff"/>
	<circle cx="1925" cy="824" r="2" fill="#cad7ff"/>
	<circle cx="201" cy="857" r="2" fill="#f8f7ff"/>
	<circle cx="280" cy="837" r="2" fill="#fff4ea"/>
	<circle cx="358" cy="845" r="2" fill="#f8f7ff"/>
	<circle cx="421" cy="844" r="3" fill="#9bb0ff"/>
	<circle cx="491" cy="833" r="3" fill="#fff4ea"/>
	<circle cx="577" cy="853" r="1" fill="#aabfff"/>
	<circle cx="882" cy="863" r="1" fill="#aabfff"/>
	<circle cx="1029" cy="848" r="1" fill="#9bb0ff"/>
	<circle cx="1064" cy="846" r="3" fill="#fff4ea"/>
	<circle cx="1189" cy="836" r="2" fill="#ffcc6f"/>
	<circle cx="1249" cy="836" r="1" fill="#f8f7ff"/>
	<circle cx="1324" cy="852" r="2" fill="#f8f7ff"/>
	<circle cx="1345" cy="856" r="1" fill="#9bb0ff"/>
	<circle cx="1537" cy="860" r="2" fill="#ffd2a1"/>
	<circle cx="1583" cy="844" r="3" fill="#aabfff"/>
	<circle cx="1762" cy="857" r="2" fill="#f8f7ff"/>
	<circle cx="1851" cy="856" r="2" fill="#9bb0ff"/>
	<circle cx="1990" cy="856" r="2" fill="#ffcc6f"/>
	<circle cx="116" cy="873" r="3" fill="#ffd2a1"/>
	<circle cx="203" cy="867" r="3" fill="#9bb0ff"/>
	<circle cx="287" cy="871" r="3" fill="#f8f7ff"/>
	<circle cx="392" cy="885" r="1" fill="#aabfff"/>
	<circle cx="454" cy="871" r="1" fill="#f8f7ff"/>
	<circle cx="571" cy="870" r="3" fill="#f8f7ff"/>
	<circle cx="971" cy="870" r="3" fill="#fff4ea"/>
	<circle cx="1241" cy="889" r="3" fill="#cad7ff"/>
	<circle cx="1507" cy="891" r="3" fill="#fff4ea"/>
	<circle cx="1587" cy="866" r="2" fill="#ffd2a1"/>
	<circle cx="1638" cy="894" r="1" fill="#fff4ea"/>
	<circle cx="1693" cy="893" r="1" fill="#aabfff"/>
	<circle cx="1917" cy="871" r="3" fill="#ffcc6f"/>
	<circle cx="1986" cy="890" r="2" fill="#ffd2a1"/>
	<circle cx="385" cy="924" r="3" fill="#cad7ff"/>
	<circle cx="702" cy="925" r="3" fill="#ffcc6f"/>
	<circle cx="741" cy="901" r="1" fill="#aabfff"/>
	<circle cx="1119" cy="915" r="2" fill="#cad7ff"/>
	<circle cx="1138" cy="923" r="3" fill="#ffcc6f"/>
	<circle cx="1221" cy="914" r="1" fill="#f8f7ff"/>
	<circle cx="1425" cy="921" r="2" fill="#ffcc6f"/>
	<circle cx="1598" cy="924" r="1" fill="#fff4ea"/>
	<circle cx="1894" cy="920" r="2" fill="#ffd2a1"/>
	<circle cx="64" cy="949" r="3" fill="#9bb0ff"/>
	<circle cx="268" cy="934" r="1" fill="#cad7ff"/>
	<circle cx="416" cy="936" r="2" fill="#9bb0ff"/>
	<circle cx="530" cy="952" r="1" fill="#f8f7ff"/>
	<circle cx="691" cy="945" r="3" fill="#ffcc6f"/>
	<circle cx="763" cy="954" r="2" fill="#ffcc6f"/>
	<circle cx="910" cy="951" r="2" fill="#cad7ff"/>
	<circle cx="1277" cy="943" r="1" fill="#f8f7ff"/>
	<circle cx="1433" cy="949" r="2" fill="#fff4ea"/>
	<circle cx="1552" cy="959" r="1" fill="#ffcc6f"/>
	<circle cx="1603" cy="946" r="2" fill="#f8f7ff"/>
	<circle cx="1930" cy="929" r="2" fill="#cad7ff"/>
	<circle cx="2003" cy="936" r="3" fill="#aabfff"/>
	<circle cx="65" cy="991" r="2" fill="#fff4ea"/>
	<circle cx="121" cy="985" r="1" fill="#aabfff"/>
	<circle cx="282" cy="963" r="3" fill="#f8f7ff"/>
	<circle cx="310" cy="965" r="2" fill="#ffd2a1"/>
	<circle cx="587" cy="981" r="2" fill="#f8f7ff"/>
	<circle cx="649" cy="968" r="1" fill="#cad7ff"/>
	<circle cx="1010" cy="989" r="2" fill="#9bb0ff"/>
	<circle cx="1069" cy="966" r="1" fill="#ffcc6f"/>
	<circle cx="1099" cy="972" r="3" fill="#aabfff"/>
	<circle cx="1160" cy="981" r="1" fill="#cad7ff"/>
	<circle cx="1292" cy="987" r="1" fill="#fff4ea"/>
	<circle cx="1749" cy="974" r="1" fill="#ffd2a1"/>
	<circle cx="1842" cy="988" r="1" fill="#ffcc6f"/>
	<circle cx="1862" cy="980" r="1" fill="#ffd2a1"/>
	<circle cx="1959" cy="966" r="2" fill="#9bb0ff"/>
	<circle cx="225" cy="1001" r="2" fill="#aabfff"/>
	<circle cx="353" cy="1018" r="3" fill="#ffd2a1"/>
	<circle cx="496" cy="1014" r="1" fill="#f8f7ff"/>
	<circle cx="592" cy="1014" r="3" fill="#cad7ff"/>
	<circle cx="977" cy="994" r="3" fill="#9bb0ff"/>
	<circle cx="1206" cy="999" r="3" fill="#cad7ff"/>
	<circle cx="1364" cy="1009" r="3" fill="#f8f7ff"/>
	<circle cx="1711" cy="1018" r="3" fill="#cad7ff"/>
	<circle cx="1974" cy="1008" r="2" fill="#f8f7ff"/>
	<circle cx="2042" cy="1000" r="3" fill="#ffd2a1"/>
	<circle cx="46" cy="1047" r="1" fill="#ffd2a1"/>
	<circle cx="158" cy="1051" r="1" fill="#cad7ff"/>
	<circle cx="377" cy="1033" r="1" fill="#aabfff"/>
	<circle cx="490" cy="1036" r="3" fill="#f8f7ff"/>
	<circle cx="640" cy="1038" r="3" fill="#fff4ea"/>
	<circle cx="660" cy="1029" r="1" fill="#ffd2a1"/>
	<circle cx="743" cy="1041" r="1" fill="#aabfff"/>
	<circle cx="1232" cy="1047" r="1" fill="#cad7ff"/>
	<circle cx="1260" cy="1031" r="3" fill="#fff4ea"/>
	<circle cx="1593" cy="1040" r="1" fill="#aabfff"/>
	<circle cx="1636" cy="1027" r="2" fill="#ffd2a1"/>
	<circle cx="1721" cy="1042" r="3" fill="#ffcc6f"/>
	<circle cx="1838" cy="1030" r="1" fill="#ffd2a1"/>
	<circle cx="1967" cy="1046" r="2" fill="#fff4ea"/>
	<circle cx="196" cy="1082" r="2" fill="#f8f7ff"/>
	<circle cx="454" cy="1069" r="3" fill="#aabfff"/>
	<circle cx="503" cy="1071" r="3" fill="#fff4ea"/>
	<circle cx="607" cy="1083" r="2" fill="#f8f7ff"/>
	<circle cx="787" cy="1066" r="1" fill="#fff4ea"/>
	<circle cx="1322" cy="1068" r="3" fill="#aabfff"/>
	<circle cx="1484" cy="1062" r="3" fill="#9bb0ff"/>
	<circle cx="1531" cy="1080" r="3" fill="#f8f7ff"/>
	<circle cx="2026" cy="1087" r="2" fill="#9bb0ff"/>
	<circle cx="364" cy="1090" r="2" fill="#f8f7ff"/>
	<circle cx="570" cy="1106" r="3" fill="#aabfff"/>
	<circle cx="825" cy="1109" r="2" fill="#ffd2a1"/>
	<circle cx="1046" cy="1116" r="1" fill="#9bb0ff"/>
	<circle cx="1082" cy="1111" r="2" fill="#aabfff"/>
	<circle cx="1096" cy="1093" r="2" fill="#ffcc6f"/>
	<circle cx="1206" cy="1103" r="3" fill="#aabfff"/>
	<circle cx="1219" cy="1114" r="2" fill="#fff4ea"/>
	<circle cx="1310" cy="1091" r="3" fill="#ffcc6f"/>
	<circle cx="1353" cy="1119" r="1" fill="#9bb0ff"/>
	<circle cx="1720" cy="1091" r="3" fill="#cad7ff"/>
	<circle cx="74" cy="1151" r="3" fill="#9bb0ff"/>
	<circle cx="319" cy="1148" r="1" fill="#9bb0ff"/>
	<circle cx="468" cy="1132" r="2" fill="#ffd2a1"/>
	<circle cx="888" cy="1127" r="3" fill="#ffd2a1"/>
	<circle cx="1080" cy="1129" r="2" fill="#9bb0ff"/>
	<circle cx="1114" cy="1143" r="1" fill="#aabfff"/>
	<circle cx="1128" cy="1132" r="2" fill="#9bb0ff"/>
	<circle cx="1196" cy="1121" r="3" fill="#9bb0ff"/>
	<circle cx="1257" cy="1131" r="3" fill="#fff4ea"/>
	<circle cx="1411" cy="1131" r="3" fill="#cad7ff"/>
	<circle cx="1733" cy="1146" r="3" fill="#aabfff"/>
	<circle cx="2058" cy="1134" r="3" fill="#fff4ea"/>
	<circle cx="219" cy="1159" r="2" fill="#f8f7ff"/>
	<circle cx="254" cy="1153" r="2" fill="#f8f7ff"/>
	<circle cx="398" cy="1172" r="2" fill="#ffcc6f"/>
	<circle cx="448" cy="1177" r="3" fill="#ffd2a1"/>
	<circle cx="678" cy="1179" r="1" fill="#cad7ff"/>
	<circle cx="719" cy="1178" r="1" fill="#9bb0ff"/>
	<circle cx="755" cy="1172" r="3" fill="#fff4ea"/>
	<circle cx="943" cy="1157" r="1" fill="#ffcc6f"/>
	<circle cx="967" cy="1174" r="2" fill="#ffcc6f"/>
	<circle cx="1366" cy="1178" r="2" fill="#ffd2a1"/>
	<circle cx="1621" cy="1167" r="3" fill="#f8f7ff"/>
	<circle cx="1723" cy="1181" r="1" fill="#9bb0ff"/>
	<circle cx="680" cy="1186" r="2" fill="#fff4ea"/>
	<circle cx="727" cy="1210" r="3" fill="#ffcc6f"/>
	<circle cx="795" cy="1186" r="3" fill="#cad7ff"/>
	<circle cx="843" cy="1189" r="3" fill="#ffcc6f"/>
	<circle cx="1030" cy="1209" r="3" fill="#aabfff"/>
	<circle cx="1102" cy="1206" r="2" fill="#cad7ff"/>
	<circle cx="1375" cy="1204" r="1" fill="#aabfff"/>
	<circle cx="1529" cy="1205" r="3" fill="#9bb0ff"/>
	<circle cx="1670" cy="1214" r="2" fill="#cad7ff"/>
	<circle cx="1803" cy="1216" r="2" fill="#aabfff"/>
	<circle cx="141" cy="1219" r="1" fill="#cad7ff"/>
	<circle cx="362" cy="1229" r="1" fill="#ffd2a1"/>
	<circle cx="616" cy="1237" r="3" fill="#aabfff"/>
	<circle cx="649" cy="1227" r="1" fill="#cad7ff"/>
	<circle cx="937" cy="1219" r="2" fill="#f8f7ff"/>
	<circle cx="1032" cy="1244" r="1" fill="#ffcc6f"/>
	<circle cx="1060" cy="1220" r="3" fill="#cad7ff"/>
	<circle cx="1094" cy="1227" r="2" fill="#ffcc6f"/>
	<circle cx="1181" cy="1231" r="1" fill="#cad7ff"/>
	<circle cx="1219" cy="1235" r="2" fill="#fff4ea"/>
	<circle cx="1285" cy="1221" r="3" fill="#cad7ff"/>
	<circle cx="1600" cy="1237" r="1" fill="#ffd2a1"/>
	<circle cx="1765" cy="1217" r="3" fill="#ffcc6f"/>
	<circle cx="2036" cy="1237" r="1" fill="#ffcc6f"/>
	<circle cx="89" cy="1249" r="1" fill="#f8f7ff"/>
	<circle cx="100" cy="1276" r="1" fill="#f8f7ff"/>
	<circle cx="201" cy="1272" r="2" fill="#f8f7ff"/>
	<circle cx="379" cy="1280" r="3" fill="#ffcc6f"/>
	<circle cx="410" cy="1264" r="3" fill="#f8f7ff"/>
	<circle cx="635" cy="1257" r="1" fill="#ffcc6f"/>
	<circle cx="689" cy="1252" r="3" fill="#aabfff"/>
	<circle cx="926" cy="1270" r="1" fill="#9bb0ff"/>
	<circle cx="972" cy="1260" r="3" fill="#cad7ff"/>
	<circle cx="1040" cy="1248" r="3" fill="#cad7ff"/>
	<circle cx="1506" cy="1274" r="2" fill="#cad7ff"/>
	<circle cx="1559" cy="1275" r="1" fill="#fff4ea"/>
	<circle cx="1618" cy="1267" r="1" fill="#f8f7ff"/>
	<circle cx="1693" cy="1280" r="3" fill="#ffcc6f"/>
	<circle cx="1741" cy="1255" r="3" fill="#ffd2a1"/>
	<circle cx="1873" cy="1261" r="3" fill="#ffd2a1"/>
	<circle cx="2032" cy="1271" r="1" fill="#ffcc6f"/>
	<circle cx="2058" cy="1255" r="2" fill="#fff4ea"/>
	<circle cx="179" cy="1288" r="3" fill="#f8f7ff"/>
	<circle cx="752" cy="1307" r="2" fill="#cad7ff"/>
	<circle cx="824" cy="1308" r="1" fill="#cad7ff"/>
	<circle cx="860" cy="1289" r="3" fill="#aabfff"/>
	<circle cx="1535" cy="1309" r="2" fill="#aabfff"/>
	<circle cx="1608" cy="1288" r="3" fill="#fff4ea"/>
	<circle cx="1682" cy="1304" r="1" fill="#cad7ff"/>
	<circle cx="1747" cy="1291" r="3" fill="#ffd2a1"/>
	<circle cx="75" cy="1324" r="1" fill="#ffcc6f"/>
	<circle cx="223" cy="1327" r="2" fill="#f8f7ff"/>
	<circle cx="359" cy="1314" r="3" fill="#f8f7ff"/>
	<circle cx="561" cy="1335" r="3" fill="#aabfff"/>
	<circle cx="644" cy="1314" r="1" fill="#9bb0ff"/>
	<circle cx="895" cy="1313" r="2" fill="#f8f7ff"/>
	<circle cx="1001" cy="1324" r="3" fill="#aabfff"/>
	<circle cx="1278" cy="1318" r="1" fill="#f8f7ff"/>
	<circle cx="1671" cy="1343" r="3" fill="#ffcc6f"/>
	<circle cx="1733" cy="1314" r="3" fill="#9bb0ff"/>
	<circle cx="2042" cy="1341" r="1" fill="#ffcc6f"/>
	<circle cx="34" cy="1351" r="1" fill="#f8f7ff"/>
	<circle cx="291" cy="1362" r="3" fill="#fff4ea"/>
	<circle cx="415" cy="1376" r="1" fill="#ffcc6f"/>
	<circle cx="726" cy="1348" r="1" fill="#cad7ff"/>
	<circle cx="999" cy="1367" r="1" fill="#ffd2a1"/>
	<circle cx="1079" cy="1364" r="3" fill="#cad7ff"/>
	<circle cx="1156" cy="1369" r="1" fill="#9bb0ff"/>
	<circle cx="1291" cy="1353" r="2" fill="#9bb0ff"/>
	<circle cx="1413" cy="1355" r="2" fill="#9bb0ff"/>
	<circle cx="1572" cy="1364" r="2" fill="#aabfff"/>
	<circle cx="1719" cy="1373" r="1" fill="#ffd2a1"/>
	<circle cx="1740" cy="1348" r="1" fill="#fff4ea"/>
	<circle cx="63" cy="1383" r="2" fill="#aabfff"/>
	<circle cx="411" cy="1380" r="3" fill="#cad7ff"/>
	<circle cx="419" cy="1403" r="3" fill="#aabfff"/>
	<circle cx="514" cy="1378" r="3" fill="#9bb0ff"/>
	<circle cx="684" cy="1399" r="1" fill="#f8f7ff"/>
	<circle cx="909" cy="1397" r="1" fill="#aabfff"/>
	<circle cx="1052" cy="1394" r="1" fill="#f8f7ff"/>
	<circle cx="1341" cy="1401" r="3" fill="#ffcc6f"/>
	<circle cx="1464" cy="1401" r="1" fill="#ffd2a1"/>
	<circle cx="1636" cy="1404" r="3" fill="#f8f7ff"/>
	<circle cx="1709" cy="1384" r="2" fill="#ffcc6f"/>
	<circle cx="1781" cy="1397" r="2" fill="#aabfff"/>
	<circle cx="2020" cy="1390" r="1" fill="#aabfff"/>
	<circle cx="438" cy="1411" r="1" fill="#cad7ff"/>
	<circle cx="465" cy="1423" r="2" fill="#9bb0ff"/>
	<circle cx="609" cy="1420" r="2" fill="#f8f7ff"/>
	<circle cx="748" cy="1433" r="1" fill="#aabfff"/>
	<circle cx="866" cy="1413" r="2" fill="#9bb0ff"/>
	<circle cx="907" cy="1421" r="1" fill="#cad7ff"/>
	<circle cx="1094" cy="1432" r="2" fill="#cad7ff"/>
	<circle cx="1288" cy="1414" r="2" fill="#aabfff"/>
	<circle cx="1334" cy="1440" r="3" fill="#f8f7ff"/>
	<circle cx="1598" cy="1422" r="1" fill="#fff4ea"/>
	<circle cx="1634" cy="1423" r="3" fill="#ffcc6f"/>
	<circle cx="1910" cy="1421" r="2" fill="#ffd2a1"/>
	<circle cx="2004" cy="1419" r="3" fill="#fff4ea"/>
	<circle cx="51" cy="1445" r="2" fill="#ffd2a1"/>
	<circle cx="97" cy="1459" r="3" fill="#ffcc6f"/>
	<circle cx="218" cy="1470" r="2" fill="#cad7ff"/>
	<circle cx="325" cy="1461" r="2" fill="#f8f7ff"/>
	<circle cx="365" cy="1447" r="3" fill="#fff4ea"/>
	<circle cx="408" cy="1464" r="2" fill="#ffd2a1"/>
	<circle cx="443" cy="1441" r="1" fill="#cad7ff"/>
	<circle cx="468" cy="1465" r="2" fill="#ffd2a1"/>
	<circle cx="552" cy="1470" r="1" fill="#fff4ea"/>
	<circle cx="753" cy="1446" r="3" fill="#aabfff"/>
	<circle cx="916" cy="1466" r="3" fill="#fff4ea"/>
	<circle cx="951" cy="1460" r="2" fill="#ffcc6f"/>
	<circle cx="983" cy="1451" r="2" fill="#f8f7ff"/>
	<circle cx="1068" cy="1449" r="1" fill="#f8f7ff"/>
	<circle cx="1329" cy="1450" r="1" fill="#cad7ff"/>
	<circle cx="1351" cy="1462" r="1" fill="#cad7ff"/>
	<circle cx="1404" cy="1461" r="1" fill="#cad7ff"/>
	<circle cx="1476" cy="1458" r="3" fill="#9bb0ff"/>
	<circle cx="1682" cy="1459" r="2" fill="#fff4ea"/>
	<circle cx="1822" cy="1446" r="1" fill="#9bb0ff"/>
	<circle cx="2003" cy="1459" r="3" fill="#aabfff"/>
	<circle cx="49" cy="1489" r="3" fill="#aabfff"/>
	<circle cx="201" cy="1503" r="3" fill="#fff4ea"/>
	<circle cx="234" cy="1484" r="3" fill="#cad7ff"/>
	<circle cx="289" cy="1484" r="3" fill="#cad7ff"/>
	<circle cx="602" cy="1475" r="1" fill="#cad7ff"/>
	<circle cx="621" cy="1485" r="3" fill="#ffcc6f"/>
	<circle cx="822" cy="1482" r="2" fill="#aabfff"/>
	<circle cx="1025" cy="1492" r="3" fill="#f8f7ff"/>
	<circle cx="1065" cy="1504" r="1" fill="#cad7ff"/>
	<circle cx="1145" cy="1479" r="2" fill="#9bb0ff"/>
	<circle cx="1216" cy="1474" r="1" fill="#fff4ea"/>
	<circle cx="1483" cy="1495" r="3" fill="#f8f7ff"/>
	<circle cx="1548" cy="1474" r="2" fill="#cad7ff"/>
	<circle cx="1735" cy="1478" r="3" fill="#ffd2a1"/>
	<circle cx="1913" cy="1503" r="3" fill="#ffd2a1"/>
	<circle cx="1978" cy="1487" r="3" fill="#f8f7ff"/>
	<circle cx="106" cy="1510" r="1" fill="#cad7ff"/>
	<circle cx="142" cy="1525" r="1" fill="#aabfff"/>
	<circle cx="222" cy="1528" r="1" fill="#ffd2a1"/>
	<circle cx="293" cy="1511" r="1" fill="#9bb0ff"/>
	<circle cx="585" cy="1532" r="1" fill="#aabfff"/>
	<circle cx="1212" cy="1514" r="1" fill="#9bb0ff"/>
	<circle cx="1263" cy="1526" r="2" fill="#f8f7ff"/>
	<circle cx="1328" cy="1517" r="1" fill="#f8f7ff"/>
	<circle cx="1609" cy="1516" r="2" fill="#ffcc6f"/>
	<circle cx="1775" cy="1534" r="3" fill="#f8f7ff"/>
	<circle cx="1795" cy="1518" r="3" fill="#aabfff"/>
	<circle cx="1999" cy="1511" r="1" fill="#f8f7ff"/>
	<circle cx="296" cy="1540" r="2" fill="#ffcc6f"/>
	<circle cx="392" cy="1539" r="1" fill="#cad7ff"/>
	<circle cx="434" cy="1552" r="3" fill="#aabfff"/>
	<circle cx="506" cy="1563" r="3" fill="#9bb0ff"/>
	<circle cx="703" cy="1549" r="3" fill="#cad7ff"/>
	<circle cx="870" cy="1549" r="1" fill="#f8f7ff"/>
	<circle cx="943" cy="1559" r="3" fill="#aabfff"/>
	<circle cx="988" cy="1542" r="3" fill="#fff4ea"/>
	<circle cx="1001" cy="1566" r="2" fill="#ffd2a1"/>
	<circle cx="1143" cy="1536" r="2" fill="#ffcc6f"/>
	<circle cx="1182" cy="1558" r="1" fill="#cad7ff"/>
	<circle cx="1470" cy="1560" r="1" fill="#9bb0ff"/>
	<circle cx="1901" cy="1557" r="1" fill="#fff4ea"/>
	<circle cx="1943" cy="1565" r="1" fill="#cad7ff"/>
	<circle cx="2029" cy="1550" r="3" fill="#fff4ea"/>
	<circle cx="454" cy="1579" r="3" fill="#9bb0ff"/>
	<circle cx="631" cy="1580" r="1" fill="#aabfff"/>
	<circle cx="739" cy="1598" r="1" fill="#ffd2a1"/>
	<circle cx="815" cy="1570" r="3" fill="#ffcc6f"/>
	<circle cx="1232" cy="1594" r="2" fill="#ffcc6f"/>
	<circle cx="1423" cy="1587" r="2" fill="#aabfff"/>
	<circle cx="1733" cy="1571" r="3" fill="#ffd2a1"/>
	<circle cx="1845" cy="1581" r="2" fill="#9bb0ff"/>
	<circle cx="2011" cy="1595" r="1" fill="#f8f7ff"/>
	<circle cx="81" cy="1611" r="3" fill="#9bb0ff"/>
	<circle cx="299" cy="1602" r="2" fill="#ffd2a1"/>
	<circle cx="396" cy="1631" r="3" fill="#cad7ff"/>
	<circle cx="782" cy="1617" r="2" fill="#cad7ff"/>
	<circle cx="940" cy="1618" r="3" fill="#cad7ff"/>
	<circle cx="1138" cy="1627" r="3" fill="#ffcc6f"/>
	<circle cx="1223" cy="1621" r="1" fill="#fff4ea"/>
	<circle cx="1342" cy="1622" r="1" fill="#ffcc6f"/>
	<circle cx="1776" cy="1605" r="2" fill="#ffd2a1"/>
	<circle cx="2007" cy="1609" r="3" fill="#fff4ea"/>
	<circle cx="283" cy="1653" r="3" fill="#aabfff"/>
	<circle cx="298" cy="1632" r="1" fill="#ffd2a1"/>
	<circle cx="448" cy="1638" r="2" fill="#fff4ea"/>
	<circle cx="744" cy="1660" r="3" fill="#ffcc6f"/>
	<circle cx="922" cy="1661" r="3" fill="#aabfff"/>
	<circle cx="1086" cy="1658" r="3" fill="#9bb0ff"/>
	<circle cx="1278" cy="1643" r="2" fill="#aabfff"/>
	<circle cx="1446" cy="1649" r="1" fill="#9bb0ff"/>
	<circle cx="1512" cy="1659" r="1" fill="#9bb0ff"/>
	<circle cx="1801" cy="1633" r="2" fill="#aabfff"/>
	<circle cx="1867" cy="1644" r="3" fill="#cad7ff"/>
	<circle cx="1979" cy="1645" r="2" fill="#f8f7ff"/>
	<circle cx="2071" cy="1653" r="3" fill="#fff4ea"/>
	<circle cx="190" cy="1682" r="3" fill="#ffd2a1"/>
	<circle cx="236" cy="1673" r="1" fill="#aabfff"/>
	<circle cx="274" cy="1687" r="3" fill="#9bb0ff"/>
	<circle cx="470" cy="1677" r="3" fill="#aabfff"/>
	<circle cx="643" cy="1669" r="2" fill="#f8f7ff"/>
	<circle cx="888" cy="1693" r="1" fill="#cad7ff"/>
	<circle cx="993" cy="1672" r="2" fill="#aabfff"/>
	<circle cx="1071" cy="1668" r="3" fill="#9bb0ff"/>
	<circle cx="1266" cy="1694" r="2" fill="#ffcc6f"/>
	<circle cx="1538" cy="1673" r="3" fill="#cad7ff"/>
	<circle cx="1693" cy="1667" r="2" fill="#ffd2a1"/>
	<circle cx="1786" cy="1694" r="3" fill="#f8f7ff"/>
	<circle cx="1923" cy="1674" r="3" fill="#9bb0ff"/>
	<circle cx="298" cy="1712" r="3" fill="#fff4ea"/>
	<circle cx="409" cy="1722" r="3" fill="#cad7ff"/>
	<circle cx="584" cy="1720" r="2" fill="#aabfff"/>
	<circle cx="758" cy="1704" r="2" fill="#aabfff"/>
	<circle cx="905" cy="1697" r="2" fill="#ffcc6f"/>
	<circle cx="936" cy="1724" r="1" fill="#cad7ff"/>
	<circle cx="989" cy="1726" r="2" fill="#aabfff"/>
	<circle cx="1211" cy="1726" r="3" fill="#ffd2a1"/>
	<circle cx="1332" cy="1703" r="3" fill="#ffcc6f"/>
	<circle cx="1377" cy="1718" r="2" fill="#cad7ff"/>
	<circle cx="1462" cy="1724" r="1" fill="#aabfff"/>
	<circle cx="1512" cy="1713" r="3" fill="#fff4ea"/>
	<circle cx="1694" cy="1705" r="2" fill="#fff4ea"/>
	<circle cx="1716" cy="1702" r="1" fill="#fff4ea"/>
	<circle cx="1787" cy="1699" r="3" fill="#fff4ea"/>
	<circle cx="1954" cy="1724" r="3" fill="#aabfff"/>
	<circle cx="35" cy="1758" r="1" fill="#ffd2a1"/>
	<circle cx="339" cy="1754" r="2" fill="#f8f7ff"/>
	<circle cx="379" cy="1756" r="3" fill="#aabfff"/>
	<circle cx="590" cy="1747" r="1" fill="#f8f7ff"/>
	<circle cx="628" cy="1739" r="3" fill="#ffcc6f"/>
	<circle cx="862" cy="1752" r="3" fill="#9bb0ff"/>
	<circle cx="886" cy="1740" r="2" fill="#aabfff"/>
	<circle cx="899" cy="1736" r="3" fill="#f8f7ff"/>
	<circle cx="985" cy="1754" r="1" fill="#ffcc6f"/>
	<circle cx="1083" cy="1758" r="2" fill="#ffcc6f"/>
	<circle cx="1092" cy="1749" r="2" fill="#ffd2a1"/>
	<circle cx="1233" cy="1756" r="2" fill="#ffcc6f"/>
	<circle cx="1384" cy="1749" r="2" fill="#cad7ff"/>
	<circle cx="1442" cy="1745" r="2" fill="#ffd2a1"/>
	<circle cx="231" cy="1771" r="2" fill="#aabfff"/>
	<circle cx="452" cy="1763" r="3" fill="#cad7ff"/>
	<circle cx="1439" cy="1779" r="2" fill="#ffd2a1"/>
	<circle cx="1715" cy="1778" r="1" fill="#ffd2a1"/>
	<circle cx="1788" cy="1788" r="1" fill="#fff4ea"/>
	<circle cx="1833" cy="1785" r="1" fill="#ffd2a1"/>
	<circle cx="1868" cy="1766" r="3" fill="#fff4ea"/>
	<circle cx="2070" cy="1775" r="1" fill="#ffd2a1"/>
	<circle cx="412" cy="1821" r="1" fill="#ffd2a1"/>
	<circle cx="553" cy="1804" r="3" fill="#fff4ea"/>
	<circle cx="669" cy="1820" r="3" fill="#fff4ea"/>
	<circle cx="822" cy="1808" r="3" fill="#fff4ea"/>
	<circle cx="888" cy="1806" r="1" fill="#fff4ea"/>
	<circle cx="1031" cy="1815" r="2" fill="#ffcc6f"/>
	<circle cx="1093" cy="1819" r="3" fill="#aabfff"/>
	<circle cx="1535" cy="1814" r="1" fill="#aabfff"/>
	<circle cx="1553" cy="1809" r="1" fill="#ffcc6f"/>
	<circle cx="1571" cy="1800" r="3" fill="#9bb0ff"/>
	<circle cx="1643" cy="1796" r="2" fill="#ffd2a1"/>
	<circle cx="1848" cy="1809" r="2" fill="#fff4ea"/>
	<circle cx="1882" cy="1801" r="3" fill="#fff4ea"/>
	<circle cx="59" cy="1834" r="2" fill="#f8f7ff"/>
	<circle cx="158" cy="1832" r="2" fill="#ffd2a1"/>
	<circle cx="272" cy="1825" r="2" fill="#f8f7ff"/>
	<circle cx="333" cy="1833" r="3" fill="#f8f7ff"/>
	<circle cx="432" cy="1824" r="2" fill="#cad7ff"/>
	<circle cx="603" cy="1847" r="3" fill="#9bb0ff"/>
	<circle cx="652" cy="1835" r="3" fill="#fff4ea"/>
	<circle cx="755" cy="1850" r="2" fill="#fff4ea"/>
	<circle cx="837" cy="1832" r="1" fill="#9bb0ff"/>
	<circle cx="1495" cy="1856" r="1" fill="#ffd2a1"/>
	<circle cx="1593" cy="1845" r="1" fill="#fff4ea"/>
	<circle cx="1630" cy="1834" r="1" fill="#ffcc6f"/>
	<circle cx="1868" cy="1854" r="3" fill="#cad7ff"/>
	<circle cx="1942" cy="1828" r="2" fill="#f8f7ff"/>
	<circle cx="60" cy="1885" r="1" fill="#fff4ea"/>
	<circle cx="116" cy="1877" r="1" fill="#f8f7ff"/>
	<circle cx="243" cy="1885" r="3" fill="#fff4ea"/>
	<circle cx="364" cy="1860" r="2" fill="#f8f7ff"/>
	<circle cx="628" cy="1866" r="2" fill="#cad7ff"/>
	<circle cx="960" cy="1862" r="3" fill="#f8f7ff"/>
	<circle cx="1109" cy="1874" r="1" fill="#ffd2a1"/>
	<circle cx="1187" cy="1864" r="2" fill="#f8f7ff"/>
	<circle cx="1531" cy="1880" r="3" fill="#aabfff"/>
	<circle cx="1719" cy="1868" r="1" fill="#f8f7ff"/>
	<circle cx="2066" cy="1864" r="2" fill="#f8f7ff"/>
	<circle cx="46" cy="1913" r="3" fill="#cad7ff"/>
	<circle cx="171" cy="1899" r="3" fill="#fff4ea"/>
	<circle cx="221" cy="1911" r="2" fill="#aabfff"/>
	<circle cx="444" cy="1888" r="1" fill="#ffd2a1"/>
	<circle cx="1268" cy="1906" r="3" fill="#ffcc6f"/>
	<circle cx="1408" cy="1918" r="2" fill="#ffcc6f"/>
	<circle cx="1474" cy="1891" r="3" fill="#f8f7ff"/>
	<circle cx="1714" cy="1902" r="2" fill="#f8f7ff"/>
	<circle cx="1955" cy="1893" r="1" fill="#fff4ea"/>
	<circle cx="2012" cy="1910" r="3" fill="#fff4ea"/>
	<circle cx="2077" cy="1899" r="1" fill="#ffcc6f"/>
	<circle cx="93" cy="1928" r="1" fill="#f8f7ff"/>
	<circle cx="113" cy="1934" r="3" fill="#9bb0ff"/>
	<circle cx="144" cy="1942" r="3" fill="#f8f7ff"/>
	<circle cx="360" cy="1929" r="3" fill="#f8f7ff"/>
	<circle cx="561" cy="1944" r="2" fill="#ffd2a1"/>
	<circle cx="633" cy="1931" r="1" fill="#ffd2a1"/>
	<circle cx="762" cy="1930" r="2" fill="#9bb0ff"/>
	<circle cx="797" cy="1948" r="3" fill="#9bb0ff"/>
	<circle cx="921" cy="1923" r="2" fill="#f8f7ff"/>
	<circle cx="1266" cy="1928" r="2" fill="#cad7ff"/>
	<circle cx="1410" cy="1927" r="3" fill="#ffd2a1"/>
	<circle cx="1531" cy="1949" r="3" fill="#9bb0ff"/>
	<circle cx="1693" cy="1921" r="1" fill="#cad7ff"/>
	<circle cx="1772" cy="1929" r="2" fill="#cad7ff"/>
	<circle cx="48" cy="1981" r="3" fill="#cad7ff"/>
	<circle cx="129" cy="1958" r="2" fill="#cad7ff"/>
	<circle cx="232" cy="1973" r="1" fill="#cad7ff"/>
	<circle cx="759" cy="1961" r="2" fill="#ffcc6f"/>
	<circle cx="948" cy="1964" r="3" fill="#ffcc6f"/>
	<circle cx="971" cy="1982" r="1" fill="#cad7ff"/>
	<circle cx="1007" cy="1964" r="3" fill="#9bb0ff"/>
	<circle cx="1119" cy="1973" r="1" fill="#f8f7ff"/>
	<circle cx="1388" cy="1964" r="3" fill="#f8f7ff"/>
	<circle cx="1409" cy="1978" r="3" fill="#9bb0ff"/>
	<circle cx="1668" cy="1982" r="1" fill="#f8f7ff"/>
	<circle cx="1737" cy="1961" r="2" fill="#cad7ff"/>
	<circle cx="1867" cy="1969" r="2" fill="#cad7ff"/>
	<circle cx="2010" cy="1967" r="1" fill="#f8f7ff"/>
	<circle cx="44" cy="1985" r="1" fill="#ffcc6f"/>
	<circle cx="247" cy="2000" r="1" fill="#fff4ea"/>
	<circle cx="371" cy="2013" r="3" fill="#aabfff"/>
	<circle cx="707" cy="2013" r="1" fill="#ffcc6f"/>
	<circle cx="882" cy="2014" r="3" fill="#fff4ea"/>
	<circle cx="953" cy="1998" r="1" fill="#f8f7ff"/>
	<circle cx="1011" cy="2016" r="2" fill="#ffd2a1"/>
	<circle cx="1207" cy="2003" r="3" fill="#cad7ff"/>
	<circle cx="1259" cy="2009" r="1" fill="#aabfff"/>
	<circle cx="1309" cy="2007" r="3" fill="#f8f7ff"/>
	<circle cx="1409" cy="2002" r="1" fill="#f8f7ff"/>
	<circle cx="1496" cy="2001" r="1" fill="#fff4ea"/>
	<circle cx="1635" cy="1987" r="2" fill="#cad7ff"/>
	<circle cx="1977" cy="1996" r="3" fill="#fff4ea"/>
	<circle cx="158" cy="2030" r="3" fill="#ffd2a1"/>
	<circle cx="177" cy="2038" r="1" fill="#f8f7ff"/>
	<circle cx="193" cy="2035" r="3" fill="#aabfff"/>
	<circle cx="241" cy="2040" r="2" fill="#cad7ff"/>
	<circle cx="273" cy="2046" r="2" fill="#fff4ea"/>
	<circle cx="424" cy="2033" r="2" fill="#f8f7ff"/>
	<circle cx="861" cy="2037" r="2" fill="#9bb0ff"/>
	<circle cx="969" cy="2025" r="3" fill="#9bb0ff"/>
	<circle cx="1002" cy="2016" r="1" fill="#aabfff"/>
	<circle cx="1061" cy="2035" r="1" fill="#ffd2a1"/>
	<circle cx="1094" cy="2022" r="3" fill="#9bb0ff"/>
	<circle cx="1477" cy="2029" r="2" fill="#aabfff"/>
	<circle cx="1735" cy="2031" r="1" fill="#fff4ea"/>
	<circle cx="1788" cy="2021" r="1" fill="#f8f7ff"/>
	<circle cx="1806" cy="2045" r="2" fill="#fff4ea"/>
	<circle cx="1869" cy="2024" r="2" fill="#f8f7ff"/>
	<circle cx="1908" cy="2036" r="3" fill="#fff4ea"/>
	<circle cx="2020" cy="2034" r="1" fill="#9bb0ff"/>
	<circle cx="48" cy="2065" r="3" fill="#ffd2a1"/>
	<circle cx="85" cy="2066" r="1" fill="#f8f7ff"/>
	<circle cx="172" cy="2052" r="1" fill="#ffd2a1"/>
	<circle cx="457" cy="2076" r="2" fill="#9bb0ff"/>
	<circle cx="758" cy="2053" r="2" fill="#9bb0ff"/>
	<circle cx="858" cy="2055" r="1" fill="#9bb0ff"/>
	<circle cx="1080" cy="2078" r="2" fill="#cad7ff"/>
	<circle cx="1759" cy="2077" r="2" fill="#fff4ea"/>
	<circle cx="1804" cy="2066" r="2" fill="#fff4ea"/>
	<circle cx="1915" cy="2055" r="2" fill="#f8f7ff"/>
	<circle cx="1982" cy="2051" r="1" fill="#9bb0ff"/>
	<circle cx="2010" cy="2076" r="3" fill="#ffd2a1"/>
	<circle cx="2041" cy="2060" r="3" fill="#f8f7ff"/>
</svg>
